<svg id="svg" version="1.1" width="400" height="400" viewBox="0 0 400 400" xmlns="http://www.w3.org/2000/svg" xmlns:xlink="http://www.w3.org/1999/xlink" ><g id="svgg"><path id="path0" d="M28.799 210.000 L 28.798 280.200 31.499 280.068 C 32.985 279.995,34.371 279.770,34.580 279.568 C 34.809 279.346,80.450 279.200,149.616 279.200 L 264.271 279.200 265.736 277.949 C 266.541 277.261,267.200 276.464,267.200 276.178 C 267.200 275.892,267.642 275.310,268.183 274.885 C 268.724 274.459,269.381 273.640,269.644 273.063 C 269.907 272.487,270.454 271.910,270.861 271.781 C 271.267 271.652,271.600 271.299,271.600 270.997 C 271.600 270.696,272.275 269.648,273.100 268.669 C 274.451 267.066,275.942 265.194,278.521 261.865 C 279.004 261.240,279.985 260.109,280.700 259.351 C 281.415 258.593,282.003 257.844,282.008 257.687 C 282.012 257.529,282.642 256.682,283.408 255.804 C 284.173 254.927,284.800 254.078,284.800 253.918 C 284.800 253.758,285.428 252.946,286.194 252.113 C 288.793 249.293,289.254 248.720,289.691 247.759 C 289.932 247.232,290.277 246.800,290.459 246.800 C 290.641 246.800,291.269 246.042,291.854 245.115 C 292.959 243.365,294.220 241.867,296.100 240.072 C 296.705 239.494,297.200 238.861,297.200 238.664 C 297.200 238.329,298.444 236.743,300.545 234.400 C 301.039 233.850,301.771 232.860,302.172 232.200 C 302.909 230.988,303.318 230.491,305.577 228.058 C 306.262 227.319,307.093 226.194,307.422 225.558 C 307.930 224.575,308.261 224.400,309.610 224.400 L 311.200 224.400 311.200 182.091 L 311.200 139.782 308.500 140.149 C 304.721 140.663,35.247 140.934,34.200 140.425 C 33.760 140.211,32.365 139.983,31.099 139.918 L 28.799 139.800 28.799 210.000 M95.529 159.840 C 96.480 159.960,97.577 160.377,97.967 160.767 C 98.435 161.235,99.618 161.571,101.438 161.753 C 103.792 161.989,104.365 162.205,105.320 163.215 C 105.963 163.895,106.854 164.400,107.411 164.400 C 108.780 164.400,114.960 170.645,115.615 172.691 C 115.881 173.521,116.441 174.576,116.859 175.036 C 118.081 176.380,118.400 178.250,118.400 184.069 C 118.400 191.356,119.195 190.800,108.771 190.800 C 98.968 190.800,99.038 190.827,98.608 186.933 C 98.467 185.650,98.099 183.970,97.792 183.200 C 97.485 182.430,97.023 181.054,96.766 180.143 C 96.347 178.656,96.147 178.462,94.809 178.248 C 93.981 178.115,92.853 177.544,92.272 176.963 C 90.834 175.525,84.815 175.604,83.677 177.076 C 83.305 177.557,82.505 178.072,81.900 178.219 C 81.224 178.384,80.800 178.755,80.800 179.183 C 80.800 179.566,80.263 180.672,79.607 181.640 L 78.415 183.400 78.407 211.086 C 78.400 238.318,78.413 238.779,79.196 239.198 C 79.634 239.432,80.268 240.158,80.606 240.812 C 80.944 241.465,81.477 242.000,81.790 242.000 C 82.103 242.000,82.835 242.442,83.418 242.981 C 85.405 244.823,90.498 244.880,92.856 243.085 C 93.595 242.523,94.697 241.938,95.303 241.787 C 96.054 241.600,96.487 241.174,96.657 240.456 C 96.795 239.875,97.311 238.410,97.805 237.200 C 98.299 235.990,98.827 233.966,98.980 232.703 C 99.399 229.227,99.475 229.200,108.889 229.200 C 119.213 229.200,118.533 228.626,118.341 237.175 L 118.200 243.467 116.900 244.947 C 116.185 245.762,115.600 246.785,115.600 247.222 C 115.600 247.682,115.178 248.209,114.600 248.473 C 114.050 248.723,113.600 249.222,113.600 249.581 C 113.600 250.405,110.380 253.600,109.549 253.600 C 109.208 253.600,108.723 254.050,108.473 254.600 C 108.214 255.168,107.681 255.600,107.239 255.600 C 106.811 255.600,105.933 256.045,105.286 256.589 C 103.749 257.882,102.323 258.400,100.300 258.400 C 99.209 258.400,98.367 258.667,97.811 259.190 C 95.573 261.292,83.154 261.314,79.483 259.222 C 78.777 258.820,77.033 258.393,75.606 258.275 C 73.440 258.094,72.876 257.889,72.191 257.029 C 71.739 256.463,71.044 256.000,70.645 256.000 C 69.583 256.000,67.200 254.784,67.200 254.242 C 67.200 253.985,66.662 253.572,66.004 253.324 C 65.346 253.076,64.640 252.431,64.435 251.891 C 64.229 251.351,63.698 250.814,63.254 250.698 C 62.810 250.582,62.172 249.883,61.835 249.144 C 61.498 248.405,60.835 247.322,60.362 246.738 C 59.757 245.992,59.407 244.805,59.184 242.738 C 59.009 241.122,58.671 239.171,58.433 238.403 C 57.831 236.460,57.828 183.468,58.430 182.344 C 58.667 181.902,59.005 180.101,59.183 178.341 C 59.445 175.745,59.694 174.941,60.508 174.071 C 61.059 173.482,61.641 172.550,61.802 172.000 C 61.962 171.450,62.792 170.318,63.647 169.485 C 64.501 168.652,65.200 167.797,65.200 167.585 C 65.200 167.373,65.454 167.200,65.764 167.200 C 66.075 167.200,66.777 166.667,67.326 166.016 C 67.960 165.261,68.990 164.663,70.161 164.368 C 71.172 164.113,72.000 163.700,72.000 163.449 C 72.000 162.629,73.494 162.033,76.258 161.750 C 77.998 161.572,79.245 161.216,79.737 160.758 C 81.066 159.520,89.210 159.047,95.529 159.840 M182.070 160.653 C 182.714 161.240,183.793 161.587,185.580 161.780 C 188.336 162.077,189.210 162.410,190.430 163.630 C 190.854 164.054,191.552 164.400,191.982 164.400 C 192.412 164.400,193.214 164.850,193.764 165.400 C 194.314 165.950,194.959 166.400,195.198 166.400 C 196.007 166.400,200.749 171.655,201.009 172.841 C 201.150 173.482,201.603 174.187,202.015 174.408 C 202.798 174.827,203.594 177.056,203.598 178.839 C 203.599 179.410,203.880 180.439,204.223 181.126 C 205.687 184.061,205.428 188.185,203.678 189.808 C 202.609 190.799,202.599 190.800,194.166 190.800 C 184.233 190.800,184.631 190.975,184.272 186.447 C 184.101 184.289,183.836 183.306,183.287 182.796 C 182.617 182.171,182.091 181.117,181.472 179.157 C 181.352 178.777,180.630 178.411,179.713 178.265 C 178.773 178.114,177.811 177.617,177.282 177.008 C 176.207 175.772,168.596 175.423,168.149 176.589 C 168.024 176.913,166.995 177.618,165.861 178.154 L 163.800 179.130 162.800 182.665 C 161.752 186.370,161.534 190.894,162.364 191.724 C 162.604 191.964,162.813 192.529,162.829 192.980 C 162.887 194.599,164.188 196.143,166.033 196.781 C 167.016 197.122,168.335 197.805,168.964 198.300 C 169.669 198.855,170.663 199.201,171.554 199.202 C 173.563 199.205,176.048 199.938,177.000 200.808 C 177.538 201.299,178.762 201.632,180.735 201.824 C 183.034 202.048,183.932 202.331,184.879 203.128 C 185.690 203.810,186.833 204.247,188.344 204.452 C 189.831 204.654,190.815 205.025,191.235 205.544 C 191.585 205.976,192.639 206.559,193.579 206.841 C 194.664 207.166,195.440 207.689,195.708 208.276 C 195.939 208.784,196.424 209.200,196.784 209.200 C 197.648 209.200,198.400 209.982,198.400 210.880 C 198.400 211.276,198.611 211.600,198.869 211.600 C 199.608 211.600,200.800 212.854,200.800 213.631 C 200.800 214.020,201.251 214.875,201.803 215.531 C 202.873 216.802,203.596 219.700,203.606 222.755 C 203.609 223.770,203.902 225.410,204.256 226.400 C 205.124 228.821,205.129 233.458,204.267 235.187 C 203.900 235.922,203.600 237.296,203.600 238.242 C 203.600 241.127,202.797 244.125,201.759 245.116 C 201.232 245.620,200.800 246.408,200.800 246.868 C 200.800 248.652,194.510 255.024,191.995 255.788 C 191.448 255.954,190.527 256.532,189.949 257.073 C 189.110 257.858,188.291 258.113,185.873 258.344 C 183.950 258.528,182.579 258.876,182.111 259.299 C 180.018 261.194,167.521 261.303,163.964 259.457 C 162.843 258.876,161.335 258.400,160.613 258.400 C 158.416 258.400,156.967 257.969,155.804 256.970 C 155.194 256.445,154.100 255.905,153.374 255.769 C 152.647 255.632,151.728 255.089,151.331 254.560 C 150.935 254.032,150.303 253.600,149.928 253.600 C 149.255 253.600,145.665 250.172,143.478 247.441 C 142.307 245.978,141.600 244.092,141.600 242.428 C 141.600 241.891,141.219 241.046,140.753 240.550 C 140.022 239.772,139.898 239.125,139.853 235.866 C 139.769 229.882,140.819 229.187,149.887 229.224 C 160.434 229.266,160.509 229.305,160.840 234.870 C 161.028 238.029,161.223 238.981,161.740 239.270 C 162.103 239.474,162.675 240.171,163.010 240.820 C 163.384 241.542,163.937 242.000,164.437 242.000 C 165.447 242.000,166.847 242.723,167.468 243.565 C 168.386 244.811,176.660 244.460,178.438 243.100 C 179.229 242.495,180.244 242.000,180.695 242.000 C 181.513 242.000,182.000 241.293,182.000 240.105 C 182.000 239.759,182.455 238.879,183.012 238.149 C 184.929 235.635,184.900 225.487,182.968 223.403 C 182.436 222.829,182.000 222.103,182.000 221.790 C 182.000 221.477,181.465 220.944,180.812 220.606 C 180.158 220.268,179.432 219.634,179.198 219.196 C 178.934 218.704,178.357 218.398,177.686 218.396 C 175.473 218.387,173.671 217.886,172.631 216.993 C 171.891 216.357,170.798 215.987,169.081 215.790 C 166.651 215.512,164.400 214.685,164.400 214.069 C 164.400 213.899,163.010 213.559,161.312 213.314 C 159.065 212.991,158.046 212.650,157.571 212.064 C 157.213 211.621,156.217 211.142,155.360 211.001 C 153.242 210.650,152.106 210.048,151.871 209.150 C 151.763 208.738,151.324 208.400,150.895 208.400 C 149.976 208.400,146.400 205.055,146.400 204.194 C 146.400 203.867,146.160 203.600,145.868 203.600 C 145.575 203.600,145.147 203.195,144.917 202.700 C 144.688 202.205,144.293 201.350,144.042 200.800 C 143.790 200.250,143.218 199.227,142.771 198.527 C 141.019 195.784,141.218 179.146,143.024 177.340 C 143.541 176.823,144.090 175.726,144.245 174.902 C 144.407 174.035,145.005 172.955,145.663 172.341 C 146.288 171.757,146.800 171.004,146.800 170.667 C 146.800 170.330,147.340 169.670,148.000 169.200 C 148.660 168.730,149.200 168.110,149.200 167.821 C 149.200 167.533,149.734 167.076,150.387 166.806 C 151.039 166.535,151.680 165.977,151.811 165.566 C 151.954 165.116,152.695 164.644,153.672 164.381 C 154.565 164.140,155.756 163.517,156.318 162.996 C 157.081 162.289,158.005 161.980,159.970 161.777 C 161.416 161.628,162.908 161.236,163.284 160.906 C 165.119 159.295,180.357 159.089,182.070 160.653 M240.440 161.059 C 242.836 162.312,243.111 162.898,243.465 167.512 C 243.656 169.993,243.932 171.190,244.438 171.733 C 245.206 172.558,245.440 173.712,245.828 178.600 C 246.009 180.871,246.363 182.312,247.049 183.564 C 247.834 184.997,248.059 186.124,248.248 189.564 C 248.415 192.615,248.672 194.080,249.167 194.800 C 250.283 196.425,250.464 197.183,250.812 201.698 C 251.072 205.079,251.324 206.250,251.991 207.187 C 252.652 208.116,252.939 209.419,253.287 213.090 C 253.607 216.457,253.930 218.028,254.419 218.600 C 254.795 219.040,255.373 219.930,255.703 220.578 L 256.304 221.755 256.538 219.778 C 256.667 218.690,256.886 216.630,257.024 215.200 C 257.183 213.561,257.631 211.983,258.238 210.929 C 258.973 209.651,259.201 208.662,259.206 206.729 C 259.214 203.755,260.053 199.858,260.896 198.886 C 261.287 198.436,261.635 196.570,261.908 193.466 C 262.250 189.570,262.472 188.575,263.162 187.841 C 263.847 187.111,264.066 186.151,264.361 182.574 C 264.716 178.273,265.251 176.063,266.059 175.563 C 266.285 175.424,266.657 173.171,266.888 170.556 C 267.232 166.648,267.475 165.553,268.253 164.408 C 268.774 163.641,269.200 162.841,269.200 162.629 C 269.200 162.417,269.684 161.739,270.275 161.122 L 271.350 160.000 278.626 160.000 C 286.073 160.000,287.355 160.214,289.380 161.796 C 290.404 162.596,290.439 164.991,289.436 165.724 C 288.883 166.128,288.624 167.142,288.337 170.026 C 288.051 172.902,287.738 174.133,287.019 175.200 C 286.331 176.223,285.970 177.551,285.682 180.128 C 285.397 182.672,285.067 183.900,284.500 184.528 C 283.937 185.153,283.597 186.404,283.302 188.941 C 283.004 191.500,282.645 192.813,282.008 193.675 C 281.349 194.566,281.047 195.730,280.816 198.264 C 280.582 200.831,280.286 201.958,279.601 202.884 C 278.787 203.986,278.090 207.381,278.017 210.600 C 278.007 211.040,277.575 211.893,277.056 212.496 C 276.304 213.371,276.025 214.371,275.675 217.451 C 275.362 220.206,275.021 221.551,274.483 222.155 C 273.970 222.730,273.585 224.124,273.280 226.516 C 272.975 228.909,272.560 230.414,271.981 231.227 C 271.365 232.092,271.045 233.357,270.821 235.809 C 270.582 238.428,270.284 239.535,269.502 240.697 C 268.723 241.856,268.436 242.914,268.249 245.320 C 268.014 248.351,267.608 249.649,266.572 250.686 C 266.295 250.962,265.945 252.515,265.793 254.138 C 265.466 257.627,265.514 257.542,263.129 258.919 C 261.311 259.969,261.077 260.000,254.938 260.000 L 248.618 260.000 247.062 258.300 C 245.075 256.129,244.775 255.338,244.379 251.214 C 244.160 248.940,243.852 247.681,243.442 247.381 C 242.523 246.709,242.129 245.340,241.809 241.716 C 241.620 239.573,241.310 238.258,240.918 237.932 C 240.007 237.176,239.610 235.815,239.243 232.185 C 238.997 229.763,238.695 228.653,238.108 228.024 C 237.511 227.383,237.198 226.191,236.872 223.317 C 236.631 221.200,236.274 219.363,236.077 219.234 C 235.239 218.685,234.652 216.802,234.377 213.784 C 234.154 211.342,233.843 210.203,233.095 209.102 C 232.334 207.981,232.042 206.883,231.822 204.323 C 231.616 201.928,231.328 200.777,230.792 200.200 C 229.928 199.270,229.224 196.543,229.210 194.071 C 229.204 192.990,228.840 191.717,228.238 190.671 C 227.596 189.556,227.121 187.805,226.811 185.407 C 226.555 183.430,226.205 181.720,226.033 181.607 C 225.252 181.091,224.700 179.256,224.423 176.255 C 224.191 173.746,223.888 172.656,223.099 171.499 C 221.376 168.974,221.092 162.775,222.625 161.174 L 223.750 160.000 231.082 160.000 C 238.235 160.000,238.464 160.026,240.440 161.059 " stroke="none" fill="#5c9c74" fill-rule="evenodd"></path><path id="path1" d="M316.682 219.052 C 316.527 219.207,316.400 219.843,316.400 220.467 C 316.400 221.464,316.253 221.600,315.175 221.600 C 314.248 221.600,313.967 221.770,314.021 222.300 C 314.332 225.359,314.022 226.400,312.800 226.400 C 311.739 226.400,311.600 226.536,311.600 227.576 C 311.600 228.223,311.441 228.851,311.246 228.971 C 311.052 229.091,310.490 230.047,309.998 231.095 C 309.506 232.143,308.668 233.540,308.137 234.200 C 307.054 235.547,302.306 241.369,301.288 242.600 C 300.924 243.040,299.741 244.570,298.659 246.000 C 296.760 248.510,296.059 249.391,293.572 252.400 C 292.936 253.170,291.771 254.610,290.983 255.600 C 290.195 256.590,289.259 257.755,288.902 258.190 C 288.546 258.624,287.875 259.524,287.412 260.190 C 286.590 261.370,285.634 262.521,283.600 264.781 C 283.050 265.392,281.880 266.838,281.000 267.993 C 278.877 270.781,277.008 273.174,275.995 274.400 C 271.633 279.682,270.242 281.505,269.693 282.656 C 269.340 283.395,268.907 284.000,268.731 284.000 C 268.554 284.000,267.980 284.675,267.455 285.500 C 266.931 286.325,265.572 287.990,264.436 289.200 C 261.080 292.775,256.533 298.418,255.346 300.480 C 254.920 301.220,253.001 303.603,251.562 305.178 C 251.210 305.562,250.368 306.670,249.690 307.638 C 249.011 308.607,247.679 310.243,246.728 311.274 C 242.153 316.235,240.232 318.792,240.718 319.278 C 241.655 320.215,245.532 320.381,266.620 320.390 C 283.514 320.398,289.158 320.518,289.520 320.880 C 290.314 321.674,290.200 377.733,289.400 380.000 C 288.934 381.322,288.800 383.740,288.800 390.850 L 288.800 400.000 320.000 400.000 L 351.200 400.000 351.200 360.600 L 351.200 321.200 375.600 321.200 L 400.000 321.200 400.000 318.800 C 400.000 316.933,399.867 316.400,399.400 316.400 C 399.000 316.400,398.800 316.000,398.800 315.200 C 398.800 314.133,398.667 314.000,397.600 314.000 C 396.464 314.000,396.397 313.909,396.339 312.300 C 396.238 309.476,395.942 308.700,395.087 309.013 C 394.336 309.288,393.695 308.703,393.540 307.600 C 393.436 306.856,393.124 306.568,392.324 306.476 C 391.493 306.380,391.220 306.107,391.124 305.276 C 391.028 304.444,390.756 304.172,389.924 304.076 C 389.093 303.980,388.820 303.707,388.724 302.876 C 388.627 302.038,388.357 301.772,387.500 301.673 C 386.493 301.558,386.396 301.396,386.350 299.773 C 386.322 298.798,386.255 297.820,386.200 297.600 C 386.145 297.380,386.078 297.009,386.050 296.775 C 386.023 296.541,385.685 296.382,385.300 296.421 C 383.928 296.561,383.652 296.386,383.527 295.300 C 383.427 294.436,383.164 294.173,382.300 294.073 C 381.379 293.967,381.200 293.756,381.200 292.773 C 381.200 291.742,381.058 291.600,380.025 291.600 C 378.992 291.600,378.836 291.443,378.725 290.300 C 378.621 289.217,378.417 288.979,377.500 288.873 C 376.691 288.780,376.389 288.516,376.357 287.873 C 376.308 286.867,376.128 284.753,376.052 284.275 C 376.023 284.096,375.685 283.982,375.300 284.021 C 373.867 284.167,373.600 283.975,373.600 282.800 C 373.600 281.739,373.464 281.600,372.425 281.600 C 371.392 281.600,371.236 281.443,371.125 280.300 C 371.021 279.217,370.817 278.979,369.900 278.873 C 368.979 278.767,368.800 278.556,368.800 277.573 C 368.800 276.536,368.661 276.400,367.600 276.400 C 366.339 276.400,366.302 276.307,366.304 273.200 C 366.305 272.069,365.798 271.615,364.525 271.606 C 363.833 271.601,363.625 271.330,363.525 270.300 C 363.422 269.225,363.214 268.979,362.324 268.876 C 361.493 268.780,361.220 268.507,361.124 267.676 C 361.027 266.838,360.757 266.572,359.900 266.473 C 358.979 266.367,358.800 266.156,358.800 265.173 C 358.800 264.136,358.661 264.000,357.600 264.000 C 356.464 264.000,356.397 263.909,356.339 262.300 C 356.238 259.476,355.942 258.700,355.087 259.013 C 354.336 259.288,353.695 258.703,353.540 257.600 C 353.436 256.856,353.124 256.568,352.324 256.476 C 351.493 256.380,351.220 256.107,351.124 255.276 C 351.028 254.444,350.756 254.172,349.924 254.076 C 349.093 253.980,348.820 253.707,348.724 252.876 C 348.627 252.038,348.357 251.772,347.500 251.673 C 346.493 251.558,346.396 251.396,346.350 249.773 C 346.322 248.798,346.255 247.820,346.200 247.600 C 346.145 247.380,346.078 247.009,346.050 246.775 C 346.023 246.541,345.685 246.382,345.300 246.421 C 343.928 246.561,343.652 246.386,343.527 245.300 C 343.427 244.436,343.164 244.173,342.300 244.073 C 341.379 243.967,341.200 243.756,341.200 242.773 C 341.200 241.742,341.058 241.600,340.025 241.600 C 338.992 241.600,338.836 241.443,338.725 240.300 C 338.621 239.217,338.417 238.979,337.500 238.873 C 336.691 238.780,336.389 238.516,336.357 237.873 C 336.308 236.867,336.128 234.753,336.052 234.275 C 336.023 234.096,335.685 233.982,335.300 234.021 C 333.867 234.167,333.600 233.975,333.600 232.800 C 333.600 231.739,333.464 231.600,332.425 231.600 C 331.392 231.600,331.236 231.443,331.125 230.300 C 331.021 229.217,330.817 228.979,329.900 228.873 C 328.979 228.767,328.800 228.556,328.800 227.573 C 328.800 226.536,328.661 226.400,327.600 226.400 C 326.339 226.400,326.302 226.307,326.304 223.200 C 326.305 222.069,325.798 221.615,324.525 221.606 C 323.833 221.601,323.625 221.330,323.525 220.300 L 323.400 219.000 320.182 218.885 C 318.411 218.822,316.836 218.897,316.682 219.052 " stroke="none" fill="#ec8080" fill-rule="evenodd"></path><path id="path2" d="M29.427 19.430 C 28.859 19.998,28.807 25.897,28.899 79.930 L 29.000 139.800 31.200 139.908 C 32.410 139.967,33.760 140.195,34.200 140.414 C 35.212 140.919,304.640 140.662,308.400 140.152 L 311.000 139.800 311.105 123.647 C 311.213 106.933,311.166 106.400,309.590 106.400 C 309.159 106.400,308.713 105.927,308.460 105.200 C 308.186 104.414,307.770 104.000,307.253 104.000 C 306.701 104.000,306.384 103.639,306.200 102.800 C 305.981 101.801,305.741 101.600,304.768 101.600 C 303.748 101.600,303.600 101.454,303.600 100.450 C 303.600 99.492,303.399 99.260,302.400 99.060 C 301.593 98.899,301.200 98.581,301.200 98.090 C 301.200 97.174,300.449 96.400,299.559 96.400 C 299.162 96.400,298.704 95.900,298.460 95.200 C 298.186 94.414,297.770 94.000,297.253 94.000 C 296.701 94.000,296.384 93.639,296.200 92.800 C 295.981 91.801,295.741 91.600,294.768 91.600 C 293.748 91.600,293.600 91.454,293.600 90.450 C 293.600 89.492,293.399 89.260,292.400 89.060 C 291.593 88.899,291.200 88.581,291.200 88.090 C 291.200 87.174,290.449 86.400,289.559 86.400 C 289.162 86.400,288.704 85.900,288.460 85.200 C 288.186 84.414,287.770 84.000,287.253 84.000 C 286.701 84.000,286.384 83.639,286.200 82.800 C 285.981 81.801,285.741 81.600,284.768 81.600 C 283.748 81.600,283.600 81.454,283.600 80.450 C 283.600 79.492,283.399 79.260,282.400 79.060 C 281.593 78.899,281.200 78.581,281.200 78.090 C 281.200 77.174,280.449 76.400,279.559 76.400 C 279.162 76.400,278.704 75.900,278.460 75.200 C 278.186 74.414,277.770 74.000,277.253 74.000 C 276.701 74.000,276.384 73.639,276.200 72.800 C 275.981 71.801,275.741 71.600,274.768 71.600 C 273.748 71.600,273.600 71.454,273.600 70.450 C 273.600 69.492,273.399 69.260,272.400 69.060 C 271.593 68.899,271.200 68.581,271.200 68.090 C 271.200 67.174,270.449 66.400,269.559 66.400 C 269.162 66.400,268.704 65.900,268.460 65.200 C 268.186 64.414,267.770 64.000,267.253 64.000 C 266.701 64.000,266.384 63.639,266.200 62.800 C 265.981 61.801,265.741 61.600,264.768 61.600 C 263.748 61.600,263.600 61.454,263.600 60.450 C 263.600 59.492,263.399 59.260,262.400 59.060 C 261.593 58.899,261.200 58.581,261.200 58.090 C 261.200 57.174,260.449 56.400,259.559 56.400 C 259.162 56.400,258.704 55.900,258.460 55.200 C 258.186 54.414,257.770 54.000,257.253 54.000 C 256.701 54.000,256.384 53.639,256.200 52.800 C 255.981 51.801,255.741 51.600,254.768 51.600 C 253.748 51.600,253.600 51.454,253.600 50.450 C 253.600 49.492,253.399 49.260,252.400 49.060 C 251.593 48.899,251.200 48.581,251.200 48.090 C 251.200 47.174,250.449 46.400,249.559 46.400 C 249.162 46.400,248.704 45.900,248.460 45.200 C 248.186 44.414,247.770 44.000,247.253 44.000 C 246.701 44.000,246.384 43.639,246.200 42.800 C 245.981 41.801,245.741 41.600,244.768 41.600 C 243.748 41.600,243.600 41.454,243.600 40.450 C 243.600 39.492,243.399 39.260,242.400 39.060 C 241.593 38.899,241.200 38.581,241.200 38.090 C 241.200 37.174,240.449 36.400,239.559 36.400 C 239.162 36.400,238.704 35.900,238.460 35.200 C 238.186 34.414,237.770 34.000,237.253 34.000 C 236.701 34.000,236.384 33.639,236.200 32.800 C 235.981 31.801,235.741 31.600,234.768 31.600 C 233.748 31.600,233.600 31.454,233.600 30.450 C 233.600 29.492,233.399 29.260,232.400 29.060 C 231.593 28.899,231.200 28.581,231.200 28.090 C 231.200 27.174,230.449 26.400,229.559 26.400 C 229.162 26.400,228.704 25.900,228.460 25.200 C 228.186 24.414,227.770 24.000,227.253 24.000 C 226.701 24.000,226.384 23.639,226.200 22.800 C 225.981 21.801,225.741 21.600,224.768 21.600 C 223.748 21.600,223.600 21.454,223.600 20.450 C 223.600 19.482,223.402 19.260,222.350 19.050 C 219.145 18.409,30.076 18.781,29.427 19.430 M214.711 25.023 L 215.600 25.645 215.600 70.023 L 215.600 114.400 259.711 114.400 C 298.988 114.400,303.919 114.468,304.711 115.023 C 305.921 115.870,306.128 138.354,304.938 139.669 C 304.299 140.374,299.575 140.400,169.961 140.400 L 35.645 140.400 35.023 139.511 C 34.466 138.717,34.400 132.669,34.400 82.730 C 34.400 25.134,34.401 25.080,35.956 24.665 C 38.143 24.080,213.868 24.432,214.711 25.023 M262.228 68.248 C 306.472 112.495,303.838 109.566,300.156 110.420 C 296.468 111.275,221.274 110.874,220.394 109.994 C 219.596 109.196,219.590 108.820,219.694 69.056 C 219.803 27.853,219.812 27.600,221.239 27.600 C 221.427 27.600,239.872 45.892,262.228 68.248 M86.600 159.496 C 82.486 159.695,80.483 160.063,79.737 160.758 C 79.245 161.216,77.998 161.572,76.258 161.750 C 73.494 162.033,72.000 162.629,72.000 163.449 C 72.000 163.700,71.172 164.113,70.161 164.368 C 68.990 164.663,67.960 165.261,67.326 166.016 C 66.777 166.667,66.075 167.200,65.764 167.200 C 65.454 167.200,65.200 167.373,65.200 167.585 C 65.200 167.797,64.501 168.652,63.647 169.485 C 62.792 170.318,61.962 171.450,61.802 172.000 C 61.641 172.550,61.059 173.482,60.508 174.071 C 59.694 174.941,59.445 175.745,59.183 178.341 C 59.005 180.101,58.667 181.902,58.430 182.344 C 57.828 183.468,57.831 236.460,58.433 238.403 C 58.671 239.171,59.009 241.122,59.184 242.738 C 59.407 244.805,59.757 245.992,60.362 246.738 C 60.835 247.322,61.498 248.405,61.835 249.144 C 62.172 249.883,62.810 250.582,63.254 250.698 C 63.698 250.814,64.229 251.351,64.435 251.891 C 64.640 252.431,65.346 253.076,66.004 253.324 C 66.662 253.572,67.200 253.985,67.200 254.242 C 67.200 254.784,69.583 256.000,70.645 256.000 C 71.044 256.000,71.739 256.463,72.191 257.029 C 72.876 257.889,73.440 258.094,75.606 258.275 C 77.033 258.393,78.777 258.820,79.483 259.222 C 83.154 261.314,95.573 261.292,97.811 259.190 C 98.367 258.667,99.209 258.400,100.300 258.400 C 102.323 258.400,103.749 257.882,105.286 256.589 C 105.933 256.045,106.811 255.600,107.239 255.600 C 107.681 255.600,108.214 255.168,108.473 254.600 C 108.723 254.050,109.208 253.600,109.549 253.600 C 110.380 253.600,113.600 250.405,113.600 249.581 C 113.600 249.222,114.050 248.723,114.600 248.473 C 115.178 248.209,115.600 247.682,115.600 247.222 C 115.600 246.785,116.185 245.762,116.900 244.947 L 118.200 243.467 118.341 237.175 C 118.533 228.626,119.213 229.200,108.889 229.200 C 99.475 229.200,99.399 229.227,98.980 232.703 C 98.827 233.966,98.299 235.990,97.805 237.200 C 97.311 238.410,96.795 239.875,96.657 240.456 C 96.487 241.174,96.054 241.600,95.303 241.787 C 94.697 241.938,93.595 242.523,92.856 243.085 C 90.498 244.880,85.405 244.823,83.418 242.981 C 82.835 242.442,82.103 242.000,81.790 242.000 C 81.477 242.000,80.944 241.465,80.606 240.812 C 80.268 240.158,79.634 239.432,79.196 239.198 C 78.413 238.779,78.400 238.318,78.407 211.086 L 78.415 183.400 79.607 181.640 C 80.263 180.672,80.800 179.566,80.800 179.183 C 80.800 178.755,81.224 178.384,81.900 178.219 C 82.505 178.072,83.305 177.557,83.677 177.076 C 84.815 175.604,90.834 175.525,92.272 176.963 C 92.853 177.544,93.981 178.115,94.809 178.248 C 96.147 178.462,96.347 178.656,96.766 180.143 C 97.023 181.054,97.485 182.430,97.792 183.200 C 98.099 183.970,98.467 185.650,98.608 186.933 C 99.038 190.827,98.968 190.800,108.771 190.800 C 119.195 190.800,118.400 191.356,118.400 184.069 C 118.400 178.250,118.081 176.380,116.859 175.036 C 116.441 174.576,115.881 173.521,115.615 172.691 C 114.960 170.645,108.780 164.400,107.411 164.400 C 106.854 164.400,105.963 163.895,105.320 163.215 C 104.365 162.205,103.792 161.989,101.438 161.753 C 99.618 161.571,98.435 161.235,97.967 160.767 C 97.013 159.813,91.899 159.241,86.600 159.496 M165.284 159.972 C 164.560 160.156,163.660 160.576,163.284 160.906 C 162.908 161.236,161.416 161.628,159.970 161.777 C 158.005 161.980,157.081 162.289,156.318 162.996 C 155.756 163.517,154.565 164.140,153.672 164.381 C 152.695 164.644,151.954 165.116,151.811 165.566 C 151.680 165.977,151.039 166.535,150.387 166.806 C 149.734 167.076,149.200 167.533,149.200 167.821 C 149.200 168.110,148.660 168.730,148.000 169.200 C 147.340 169.670,146.800 170.330,146.800 170.667 C 146.800 171.004,146.288 171.757,145.663 172.341 C 145.005 172.955,144.407 174.035,144.245 174.902 C 144.090 175.726,143.541 176.823,143.024 177.340 C 141.218 179.146,141.019 195.784,142.771 198.527 C 143.218 199.227,143.790 200.250,144.042 200.800 C 144.293 201.350,144.688 202.205,144.917 202.700 C 145.147 203.195,145.575 203.600,145.868 203.600 C 146.160 203.600,146.400 203.867,146.400 204.194 C 146.400 205.055,149.976 208.400,150.895 208.400 C 151.324 208.400,151.763 208.738,151.871 209.150 C 152.106 210.048,153.242 210.650,155.360 211.001 C 156.217 211.142,157.213 211.621,157.571 212.064 C 158.046 212.650,159.065 212.991,161.312 213.314 C 163.010 213.559,164.400 213.899,164.400 214.069 C 164.400 214.685,166.651 215.512,169.081 215.790 C 170.798 215.987,171.891 216.357,172.631 216.993 C 173.671 217.886,175.473 218.387,177.686 218.396 C 178.357 218.398,178.934 218.704,179.198 219.196 C 179.432 219.634,180.158 220.268,180.812 220.606 C 181.465 220.944,182.000 221.477,182.000 221.790 C 182.000 222.103,182.436 222.829,182.968 223.403 C 184.900 225.487,184.929 235.635,183.012 238.149 C 182.455 238.879,182.000 239.759,182.000 240.105 C 182.000 241.293,181.513 242.000,180.695 242.000 C 180.244 242.000,179.229 242.495,178.438 243.100 C 176.660 244.460,168.386 244.811,167.468 243.565 C 166.847 242.723,165.447 242.000,164.437 242.000 C 163.937 242.000,163.384 241.542,163.010 240.820 C 162.675 240.171,162.103 239.474,161.740 239.270 C 161.223 238.981,161.028 238.029,160.840 234.870 C 160.509 229.305,160.434 229.266,149.887 229.224 C 140.819 229.187,139.769 229.882,139.853 235.866 C 139.898 239.125,140.022 239.772,140.753 240.550 C 141.219 241.046,141.600 241.891,141.600 242.428 C 141.600 244.092,142.307 245.978,143.478 247.441 C 145.665 250.172,149.255 253.600,149.928 253.600 C 150.303 253.600,150.935 254.032,151.331 254.560 C 151.728 255.089,152.647 255.632,153.374 255.769 C 154.100 255.905,155.194 256.445,155.804 256.970 C 156.967 257.969,158.416 258.400,160.613 258.400 C 161.335 258.400,162.843 258.876,163.964 259.457 C 167.521 261.303,180.018 261.194,182.111 259.299 C 182.579 258.876,183.950 258.528,185.873 258.344 C 188.291 258.113,189.110 257.858,189.949 257.073 C 190.527 256.532,191.448 255.954,191.995 255.788 C 194.510 255.024,200.800 248.652,200.800 246.868 C 200.800 246.408,201.232 245.620,201.759 245.116 C 202.797 244.125,203.600 241.127,203.600 238.242 C 203.600 237.296,203.900 235.922,204.267 235.187 C 205.129 233.458,205.124 228.821,204.256 226.400 C 203.902 225.410,203.609 223.770,203.606 222.755 C 203.596 219.700,202.873 216.802,201.803 215.531 C 201.251 214.875,200.800 214.020,200.800 213.631 C 200.800 212.854,199.608 211.600,198.869 211.600 C 198.611 211.600,198.400 211.276,198.400 210.880 C 198.400 209.982,197.648 209.200,196.784 209.200 C 196.424 209.200,195.939 208.784,195.708 208.276 C 195.440 207.689,194.664 207.166,193.579 206.841 C 192.639 206.559,191.585 205.976,191.235 205.544 C 190.815 205.025,189.831 204.654,188.344 204.452 C 186.833 204.247,185.690 203.810,184.879 203.128 C 183.932 202.331,183.034 202.048,180.735 201.824 C 178.762 201.632,177.538 201.299,177.000 200.808 C 176.048 199.938,173.563 199.205,171.554 199.202 C 170.663 199.201,169.669 198.855,168.964 198.300 C 168.335 197.805,167.016 197.122,166.033 196.781 C 164.188 196.143,162.887 194.599,162.829 192.980 C 162.813 192.529,162.604 191.964,162.364 191.724 C 161.534 190.894,161.752 186.370,162.800 182.665 L 163.800 179.130 165.861 178.154 C 166.995 177.618,168.024 176.913,168.149 176.589 C 168.596 175.423,176.207 175.772,177.282 177.008 C 177.811 177.617,178.773 178.114,179.713 178.265 C 180.630 178.411,181.352 178.777,181.472 179.157 C 182.091 181.117,182.617 182.171,183.287 182.796 C 183.836 183.306,184.101 184.289,184.272 186.447 C 184.631 190.975,184.233 190.800,194.166 190.800 C 202.599 190.800,202.609 190.799,203.678 189.808 C 205.428 188.185,205.687 184.061,204.223 181.126 C 203.880 180.439,203.599 179.410,203.598 178.839 C 203.594 177.056,202.798 174.827,202.015 174.408 C 201.603 174.187,201.150 173.482,201.009 172.841 C 200.749 171.655,196.007 166.400,195.198 166.400 C 194.959 166.400,194.314 165.950,193.764 165.400 C 193.214 164.850,192.412 164.400,191.982 164.400 C 191.552 164.400,190.854 164.054,190.430 163.630 C 189.210 162.410,188.336 162.077,185.580 161.780 C 183.793 161.587,182.714 161.240,182.070 160.653 C 181.057 159.729,168.291 159.211,165.284 159.972 M222.625 161.174 C 221.092 162.775,221.376 168.974,223.099 171.499 C 223.888 172.656,224.191 173.746,224.423 176.255 C 224.700 179.256,225.252 181.091,226.033 181.607 C 226.205 181.720,226.555 183.430,226.811 185.407 C 227.121 187.805,227.596 189.556,228.238 190.671 C 228.840 191.717,229.204 192.990,229.210 194.071 C 229.224 196.543,229.928 199.270,230.792 200.200 C 231.328 200.777,231.616 201.928,231.822 204.323 C 232.042 206.883,232.334 207.981,233.095 209.102 C 233.843 210.203,234.154 211.342,234.377 213.784 C 234.652 216.802,235.239 218.685,236.077 219.234 C 236.274 219.363,236.631 221.200,236.872 223.317 C 237.198 226.191,237.511 227.383,238.108 228.024 C 238.695 228.653,238.997 229.763,239.243 232.185 C 239.610 235.815,240.007 237.176,240.918 237.932 C 241.310 238.258,241.620 239.573,241.809 241.716 C 242.129 245.340,242.523 246.709,243.442 247.381 C 243.852 247.681,244.160 248.940,244.379 251.214 C 244.775 255.338,245.075 256.129,247.062 258.300 L 248.618 260.000 254.938 260.000 C 261.077 260.000,261.311 259.969,263.129 258.919 C 265.514 257.542,265.466 257.627,265.793 254.138 C 265.945 252.515,266.295 250.962,266.572 250.686 C 267.608 249.649,268.014 248.351,268.249 245.320 C 268.436 242.914,268.723 241.856,269.502 240.697 C 270.284 239.535,270.582 238.428,270.821 235.809 C 271.045 233.357,271.365 232.092,271.981 231.227 C 272.560 230.414,272.975 228.909,273.280 226.516 C 273.585 224.124,273.970 222.730,274.483 222.155 C 275.021 221.551,275.362 220.206,275.675 217.451 C 276.025 214.371,276.304 213.371,277.056 212.496 C 277.575 211.893,278.007 211.040,278.017 210.600 C 278.090 207.381,278.787 203.986,279.601 202.884 C 280.286 201.958,280.582 200.831,280.816 198.264 C 281.047 195.730,281.349 194.566,282.008 193.675 C 282.645 192.813,283.004 191.500,283.302 188.941 C 283.597 186.404,283.937 185.153,284.500 184.528 C 285.067 183.900,285.397 182.672,285.682 180.128 C 285.970 177.551,286.331 176.223,287.019 175.200 C 287.738 174.133,288.051 172.902,288.337 170.026 C 288.624 167.142,288.883 166.128,289.436 165.724 C 290.439 164.991,290.404 162.596,289.380 161.796 C 287.355 160.214,286.073 160.000,278.626 160.000 L 271.350 160.000 270.275 161.122 C 269.684 161.739,269.200 162.417,269.200 162.629 C 269.200 162.841,268.774 163.641,268.253 164.408 C 267.475 165.553,267.232 166.648,266.888 170.556 C 266.657 173.171,266.285 175.424,266.059 175.563 C 265.251 176.063,264.716 178.273,264.361 182.574 C 264.066 186.151,263.847 187.111,263.162 187.841 C 262.472 188.575,262.250 189.570,261.908 193.466 C 261.635 196.570,261.287 198.436,260.896 198.886 C 260.053 199.858,259.214 203.755,259.206 206.729 C 259.201 208.662,258.973 209.651,258.238 210.929 C 257.631 211.983,257.183 213.561,257.024 215.200 C 256.886 216.630,256.667 218.690,256.538 219.778 L 256.304 221.755 255.703 220.578 C 255.373 219.930,254.795 219.040,254.419 218.600 C 253.930 218.028,253.607 216.457,253.287 213.090 C 252.939 209.419,252.652 208.116,251.991 207.187 C 251.324 206.250,251.072 205.079,250.812 201.698 C 250.464 197.183,250.283 196.425,249.167 194.800 C 248.672 194.080,248.415 192.615,248.248 189.564 C 248.059 186.124,247.834 184.997,247.049 183.564 C 246.363 182.312,246.009 180.871,245.828 178.600 C 245.440 173.712,245.206 172.558,244.438 171.733 C 243.932 171.190,243.656 169.993,243.465 167.512 C 242.939 160.668,241.839 160.000,231.082 160.000 L 223.750 160.000 222.625 161.174 M94.400 160.793 C 95.170 160.999,96.700 161.363,97.800 161.602 C 98.900 161.840,100.550 162.203,101.467 162.407 C 102.384 162.612,103.804 163.234,104.623 163.790 C 105.442 164.345,106.436 164.800,106.833 164.800 C 107.230 164.800,107.790 165.115,108.077 165.500 C 108.365 165.885,109.267 166.699,110.083 167.308 C 111.719 168.529,115.600 173.458,115.600 174.315 C 115.600 174.613,116.095 175.700,116.700 176.729 C 117.999 178.939,118.584 187.162,117.576 189.045 L 117.065 190.000 108.746 190.000 C 99.110 190.000,99.643 190.246,99.303 185.630 C 99.177 183.907,98.781 182.396,98.155 181.250 C 97.630 180.287,97.200 179.264,97.200 178.977 C 97.200 178.689,96.814 178.331,96.343 178.182 C 95.871 178.032,94.666 177.390,93.664 176.755 C 89.179 173.910,82.662 175.376,79.491 179.941 L 78.200 181.800 78.200 210.678 L 78.200 239.555 79.578 240.978 C 82.364 243.852,83.653 244.467,87.379 244.699 C 90.716 244.908,94.400 244.129,94.400 243.215 C 94.400 243.040,94.932 242.677,95.581 242.408 C 97.162 241.753,98.970 237.906,99.334 234.427 C 99.811 229.867,99.531 230.000,108.678 230.000 C 118.547 230.000,118.000 229.660,118.000 235.802 C 118.000 240.334,117.637 242.185,116.391 244.000 C 116.014 244.550,115.571 245.450,115.408 246.000 C 115.244 246.550,114.682 247.450,114.159 248.000 C 112.671 249.565,109.084 253.133,108.200 253.929 C 107.025 254.986,100.911 258.000,99.942 258.000 C 99.484 258.000,97.555 258.387,95.655 258.860 C 91.404 259.917,85.143 260.007,82.373 259.049 C 81.368 258.702,79.208 258.231,77.573 258.002 C 75.759 257.748,74.165 257.268,73.485 256.770 C 72.872 256.321,71.654 255.701,70.779 255.392 C 68.203 254.484,62.000 249.153,62.000 247.849 C 62.000 247.626,61.565 246.803,61.033 246.022 C 59.343 243.536,59.200 240.753,59.200 210.400 C 59.200 181.206,59.380 177.153,60.763 175.200 C 61.153 174.650,61.773 173.570,62.142 172.800 C 63.362 170.255,68.467 165.542,70.896 164.719 C 71.613 164.476,72.669 163.951,73.242 163.553 C 73.815 163.154,75.075 162.653,76.042 162.439 C 77.717 162.068,82.900 160.985,84.600 160.650 C 86.222 160.331,93.044 160.431,94.400 160.793 M180.800 161.335 C 182.230 161.671,184.421 162.148,185.669 162.395 C 186.917 162.642,188.153 163.103,188.417 163.420 C 188.680 163.737,189.580 164.202,190.418 164.453 C 191.256 164.704,192.505 165.424,193.195 166.054 C 193.885 166.685,194.573 167.200,194.725 167.200 C 196.710 167.200,202.287 175.318,203.050 179.319 C 204.930 189.181,204.089 190.400,195.402 190.400 C 184.942 190.400,185.201 190.535,184.591 184.747 C 184.431 183.229,184.024 182.054,183.343 181.147 C 182.786 180.406,182.171 179.395,181.975 178.900 C 181.780 178.405,181.300 177.995,180.910 177.989 C 180.519 177.983,179.493 177.443,178.629 176.789 C 176.475 175.159,169.151 174.981,166.826 176.501 C 166.070 176.996,164.996 177.681,164.439 178.025 C 161.833 179.634,159.888 188.464,161.268 192.422 C 162.494 195.940,166.988 199.144,171.667 199.836 C 172.620 199.978,173.970 200.417,174.667 200.813 C 175.363 201.210,177.347 201.822,179.074 202.174 C 180.801 202.527,183.097 203.261,184.175 203.807 C 185.253 204.353,186.620 204.800,187.212 204.800 C 187.804 204.800,188.919 205.228,189.690 205.751 C 190.461 206.274,191.752 206.920,192.560 207.187 C 193.368 207.453,194.603 208.196,195.304 208.836 C 196.005 209.476,196.680 210.000,196.804 210.000 C 197.284 210.000,200.154 213.773,200.574 214.955 C 200.817 215.640,201.348 216.695,201.754 217.301 C 204.056 220.730,204.032 239.367,201.721 243.285 C 201.273 244.044,200.689 245.325,200.423 246.131 C 200.157 246.938,199.618 247.823,199.227 248.099 C 198.835 248.374,198.397 248.972,198.254 249.427 C 197.855 250.688,191.897 255.589,190.754 255.596 C 190.399 255.598,189.679 255.922,189.154 256.316 C 187.721 257.392,186.111 257.999,184.681 258.005 C 183.977 258.007,182.010 258.351,180.311 258.768 C 175.637 259.916,171.104 260.145,168.000 259.392 C 166.570 259.045,163.889 258.492,162.042 258.163 C 160.195 257.835,157.945 257.144,157.042 256.627 C 156.139 256.111,154.726 255.475,153.903 255.214 C 153.080 254.953,152.270 254.508,152.103 254.224 C 151.936 253.940,151.183 253.393,150.428 253.007 C 148.910 252.230,144.912 248.279,144.359 247.010 C 144.166 246.564,143.652 245.750,143.219 245.200 C 141.618 243.169,140.418 235.012,141.381 232.707 C 142.475 230.089,143.200 229.894,151.246 230.061 C 160.044 230.244,159.810 230.105,160.368 235.494 C 160.725 238.942,162.070 242.000,163.231 242.000 C 163.359 242.000,164.346 242.585,165.426 243.300 L 167.389 244.600 172.863 244.600 C 177.884 244.600,178.413 244.530,179.268 243.750 C 179.781 243.282,180.603 242.692,181.096 242.438 C 181.589 242.184,182.289 241.397,182.652 240.688 C 183.015 239.980,183.466 239.300,183.655 239.177 C 185.294 238.112,185.108 224.864,183.419 222.428 C 181.569 219.758,179.889 218.520,177.167 217.823 C 175.774 217.466,174.355 216.921,174.014 216.613 C 173.673 216.304,172.111 215.784,170.543 215.457 C 168.976 215.130,166.839 214.473,165.795 213.998 C 164.751 213.522,163.245 213.033,162.448 212.911 C 161.652 212.789,160.280 212.340,159.400 211.912 C 158.520 211.484,156.903 210.860,155.806 210.524 C 154.710 210.188,153.301 209.483,152.676 208.957 C 152.050 208.430,151.380 208.000,151.185 208.000 C 150.249 208.000,145.807 202.929,144.941 200.873 C 144.600 200.063,143.969 198.664,143.539 197.765 C 141.558 193.621,141.490 181.534,143.431 178.514 C 143.744 178.027,144.288 176.767,144.639 175.714 C 144.991 174.661,145.711 173.340,146.239 172.778 C 146.768 172.216,147.200 171.553,147.200 171.305 C 147.200 170.404,153.595 165.031,155.247 164.543 C 156.137 164.280,157.165 163.802,157.532 163.480 C 158.349 162.764,158.982 162.566,162.800 161.836 C 164.450 161.520,166.430 161.075,167.200 160.846 C 169.108 160.280,177.610 160.586,180.800 161.335 M241.408 162.826 C 242.280 163.698,242.490 164.399,242.813 167.523 C 243.022 169.543,243.628 172.439,244.159 173.959 C 244.690 175.480,245.256 178.131,245.418 179.850 C 245.579 181.570,246.137 184.198,246.658 185.690 C 247.180 187.182,247.780 190.078,247.992 192.126 C 248.205 194.174,248.721 196.648,249.139 197.625 C 249.558 198.601,250.117 201.110,250.381 203.200 C 250.645 205.290,251.297 208.290,251.831 209.867 C 252.364 211.444,252.800 213.349,252.800 214.100 C 252.800 216.663,253.745 220.181,254.958 222.132 L 256.169 224.080 256.654 222.740 C 256.921 222.003,257.159 220.680,257.184 219.800 C 257.239 217.795,258.112 213.678,258.722 212.542 C 258.975 212.071,259.440 209.821,259.755 207.542 C 260.069 205.264,260.687 202.320,261.127 201.000 C 261.567 199.680,262.144 196.890,262.408 194.800 C 262.673 192.710,263.163 190.467,263.498 189.816 C 263.833 189.165,264.451 186.384,264.871 183.636 C 265.291 180.888,265.787 178.451,265.973 178.220 C 266.339 177.765,266.893 175.133,267.618 170.400 C 267.871 168.750,268.330 166.877,268.639 166.239 C 268.948 165.600,269.200 164.769,269.200 164.392 C 269.200 164.016,269.573 163.234,270.029 162.654 L 270.858 161.600 278.855 161.600 C 283.541 161.600,287.169 161.769,287.617 162.009 C 288.687 162.582,289.355 163.931,288.863 164.526 C 288.646 164.787,288.271 166.431,288.028 168.179 C 287.785 169.928,287.155 172.301,286.628 173.452 C 286.101 174.603,285.543 176.731,285.387 178.181 C 285.232 179.631,284.765 181.484,284.349 182.299 C 283.934 183.114,283.406 184.865,283.176 186.190 C 282.946 187.516,282.394 189.680,281.949 191.000 C 281.503 192.320,280.825 194.930,280.442 196.800 C 280.058 198.670,279.459 200.742,279.111 201.405 C 278.763 202.068,278.354 203.508,278.202 204.605 C 277.807 207.468,277.258 209.568,276.424 211.400 C 276.024 212.280,275.564 214.148,275.403 215.550 C 275.242 216.953,274.685 219.028,274.166 220.163 C 273.646 221.297,273.054 223.405,272.850 224.846 C 272.646 226.288,272.113 228.353,271.665 229.434 C 271.217 230.515,270.638 232.750,270.377 234.400 C 270.116 236.050,269.565 238.067,269.153 238.882 C 268.740 239.697,268.226 241.606,268.011 243.124 C 267.582 246.146,267.447 246.635,266.385 249.000 C 265.991 249.880,265.547 251.702,265.400 253.049 C 264.837 258.213,264.251 258.494,254.400 258.318 L 247.800 258.200 246.664 256.000 C 246.018 254.748,245.209 252.128,244.787 249.921 C 244.379 247.787,243.773 245.625,243.439 245.116 C 243.106 244.607,242.550 242.549,242.203 240.544 C 241.857 238.538,241.251 236.200,240.856 235.348 C 240.462 234.497,239.910 232.360,239.630 230.600 C 239.350 228.840,238.951 227.192,238.744 226.939 C 238.224 226.304,237.668 224.278,237.178 221.240 C 236.951 219.832,236.432 217.942,236.024 217.040 C 235.615 216.138,235.059 213.960,234.788 212.200 C 234.516 210.440,233.979 208.460,233.594 207.800 C 233.209 207.140,232.598 204.959,232.237 202.954 C 231.875 200.949,231.256 198.609,230.859 197.754 C 230.463 196.899,229.910 194.760,229.630 193.000 C 229.350 191.240,228.982 189.620,228.813 189.400 C 228.279 188.708,227.553 186.098,227.201 183.606 C 227.014 182.286,226.568 180.620,226.210 179.903 C 225.852 179.186,225.220 176.855,224.805 174.723 C 224.391 172.590,223.835 170.439,223.569 169.941 C 219.807 162.912,221.229 161.520,232.014 161.678 L 240.384 161.800 241.408 162.826 M307.422 225.558 C 307.093 226.194,306.262 227.319,305.577 228.058 C 303.318 230.491,302.909 230.988,302.172 232.200 C 301.771 232.860,301.039 233.850,300.545 234.400 C 298.444 236.743,297.200 238.329,297.200 238.664 C 297.200 238.861,296.705 239.494,296.100 240.072 C 294.220 241.867,292.959 243.365,291.854 245.115 C 291.269 246.042,290.641 246.800,290.459 246.800 C 290.277 246.800,289.932 247.232,289.691 247.759 C 289.254 248.720,288.793 249.293,286.194 252.113 C 285.428 252.946,284.800 253.758,284.800 253.918 C 284.800 254.078,284.173 254.927,283.408 255.804 C 282.642 256.682,282.012 257.529,282.008 257.687 C 282.003 257.844,281.415 258.593,280.700 259.351 C 279.985 260.109,279.004 261.240,278.521 261.865 C 275.942 265.194,274.451 267.066,273.100 268.669 C 272.275 269.648,271.600 270.696,271.600 270.997 C 271.600 271.299,271.267 271.652,270.861 271.781 C 270.454 271.910,269.907 272.487,269.644 273.063 C 269.381 273.640,268.724 274.459,268.183 274.885 C 267.642 275.310,267.200 275.892,267.200 276.178 C 267.200 276.464,266.541 277.261,265.736 277.949 L 264.271 279.200 149.616 279.200 C 77.974 279.200,34.817 279.342,34.580 279.579 C 34.371 279.787,33.030 280.012,31.600 280.079 L 29.000 280.200 28.898 330.375 C 28.818 370.252,28.900 380.616,29.298 380.869 C 29.574 381.044,86.095 381.191,154.900 381.194 L 280.000 381.200 280.000 378.880 C 280.000 377.604,279.784 376.344,279.520 376.080 C 279.149 375.709,251.463 375.600,157.343 375.600 L 35.645 375.600 35.023 374.711 C 33.908 373.119,34.095 281.678,35.216 280.475 L 36.031 279.600 150.028 279.600 C 273.952 279.600,265.810 279.752,267.450 277.414 C 267.863 276.826,268.605 275.915,269.100 275.391 C 269.595 274.866,270.000 274.315,270.000 274.167 C 270.000 274.018,270.585 273.232,271.300 272.420 C 273.470 269.955,274.308 268.913,275.071 267.732 C 275.472 267.111,276.295 266.081,276.900 265.442 C 277.505 264.804,278.000 264.166,278.000 264.025 C 278.000 263.883,278.738 262.965,279.640 261.984 C 281.203 260.283,283.933 256.868,285.184 255.049 C 285.505 254.582,286.373 253.480,287.114 252.600 C 287.855 251.720,288.853 250.506,289.331 249.902 C 290.380 248.576,291.460 247.223,293.480 244.705 C 294.316 243.663,295.630 241.988,296.400 240.982 C 297.170 239.977,298.295 238.580,298.899 237.877 C 299.504 237.175,300.827 235.520,301.839 234.200 C 302.851 232.880,303.806 231.710,303.961 231.600 C 304.116 231.490,304.652 230.726,305.152 229.902 C 305.653 229.079,306.282 228.269,306.551 228.102 C 306.820 227.936,307.448 227.215,307.947 226.500 C 308.621 225.535,309.157 225.200,310.027 225.200 C 310.672 225.200,311.200 225.020,311.200 224.800 C 311.200 223.754,308.026 224.390,307.422 225.558 " stroke="none" fill="#7c8c9c" fill-rule="evenodd"></path><path id="path3" d="M35.868 25.866 C 35.720 26.013,35.600 51.573,35.600 82.667 L 35.600 139.200 170.006 139.200 L 304.412 139.200 304.306 127.500 L 304.200 115.800 259.960 115.698 C 217.764 115.601,215.690 115.563,215.062 114.869 C 214.460 114.204,214.395 110.332,214.302 69.970 L 214.200 25.800 125.168 25.699 C 76.200 25.644,36.015 25.719,35.868 25.866 M221.021 30.006 C 220.889 30.553,220.830 48.640,220.890 70.200 L 221.000 109.400 260.467 109.400 C 282.173 109.400,300.071 109.262,300.239 109.094 C 300.489 108.844,294.456 102.376,290.924 99.108 C 290.443 98.663,288.193 96.412,285.924 94.108 C 283.656 91.803,281.406 89.553,280.924 89.108 C 280.443 88.662,278.193 86.412,275.924 84.108 C 273.656 81.803,271.406 79.553,270.924 79.108 C 270.443 78.662,268.193 76.412,265.924 74.108 C 263.656 71.803,261.406 69.553,260.924 69.108 C 260.443 68.662,258.193 66.412,255.924 64.108 C 253.656 61.803,251.406 59.553,250.924 59.108 C 250.443 58.662,248.193 56.412,245.924 54.108 C 243.656 51.803,241.406 49.553,240.924 49.108 C 240.443 48.662,238.193 46.418,235.924 44.120 C 233.656 41.822,231.590 39.730,231.333 39.471 C 231.077 39.212,228.856 37.020,226.399 34.600 C 223.942 32.180,221.781 29.933,221.597 29.606 C 221.334 29.138,221.211 29.223,221.021 30.006 M109.429 80.571 C 110.169 81.312,110.245 88.795,109.520 89.520 C 108.750 90.290,71.345 90.203,70.571 89.429 C 69.700 88.557,69.771 81.716,70.662 80.731 C 71.564 79.735,108.440 79.582,109.429 80.571 M199.429 80.571 C 200.169 81.312,200.245 88.795,199.520 89.520 C 198.745 90.295,141.348 90.205,140.571 89.429 C 139.700 88.557,139.771 81.716,140.662 80.731 C 141.567 79.732,198.434 79.577,199.429 80.571 M109.429 100.571 C 110.169 101.312,110.245 108.795,109.520 109.520 C 108.750 110.290,71.345 110.203,70.571 109.429 C 69.700 108.557,69.771 101.716,70.662 100.731 C 71.564 99.735,108.440 99.582,109.429 100.571 M199.429 100.571 C 200.169 101.312,200.245 108.795,199.520 109.520 C 198.745 110.295,141.348 110.205,140.571 109.429 C 139.700 108.557,139.771 101.716,140.662 100.731 C 141.567 99.732,198.434 99.577,199.429 100.571 M109.429 120.571 C 110.169 121.312,110.245 128.795,109.520 129.520 C 108.750 130.290,71.345 130.203,70.571 129.429 C 69.700 128.557,69.771 121.716,70.662 120.731 C 71.564 119.735,108.440 119.582,109.429 120.571 M199.429 120.571 C 200.169 121.312,200.245 128.795,199.520 129.520 C 198.745 130.295,141.348 130.205,140.571 129.429 C 139.700 128.557,139.771 121.716,140.662 120.731 C 141.567 119.732,198.434 119.577,199.429 120.571 M269.429 120.571 C 270.169 121.312,270.245 128.795,269.520 129.520 C 268.750 130.290,231.345 130.203,230.571 129.429 C 229.700 128.557,229.771 121.716,230.662 120.731 C 231.564 119.735,268.440 119.582,269.429 120.571 M85.000 162.660 C 79.671 162.969,75.976 163.624,75.205 164.395 C 74.787 164.813,73.760 165.281,72.922 165.434 C 70.566 165.865,64.558 171.187,63.251 174.002 C 62.893 174.773,62.192 176.059,61.693 176.860 L 60.786 178.317 60.893 210.717 C 60.991 240.296,61.058 243.181,61.666 243.858 C 62.033 244.266,62.654 245.407,63.048 246.394 C 63.441 247.381,64.256 248.604,64.860 249.112 C 65.463 249.620,66.058 250.351,66.180 250.738 C 66.303 251.124,67.049 251.674,67.838 251.959 C 68.628 252.245,69.634 252.893,70.074 253.399 C 70.566 253.965,71.533 254.419,72.579 254.576 C 73.516 254.716,74.633 255.158,75.061 255.557 C 77.794 258.103,99.026 258.134,101.800 255.597 C 102.240 255.194,103.295 254.736,104.144 254.580 C 105.090 254.405,106.084 253.850,106.710 253.147 C 107.272 252.516,107.897 252.000,108.098 252.000 C 108.607 252.000,112.000 248.557,112.000 248.041 C 112.000 247.809,112.448 247.325,112.996 246.966 C 113.597 246.572,114.166 245.655,114.429 244.656 C 114.668 243.745,115.236 242.370,115.690 241.600 C 116.595 240.064,117.097 235.507,116.632 233.032 L 116.364 231.600 108.829 231.600 C 100.315 231.600,100.830 231.382,100.796 235.000 C 100.773 237.431,100.127 239.729,99.271 240.422 C 98.849 240.765,98.377 241.442,98.223 241.927 C 98.069 242.412,97.416 243.081,96.772 243.415 C 96.127 243.748,95.600 244.167,95.600 244.346 C 95.600 245.617,84.078 246.302,81.913 245.161 C 76.743 242.434,76.817 242.930,76.833 210.800 C 76.851 177.721,76.625 179.559,81.124 175.807 C 83.551 173.784,93.266 173.787,95.452 175.813 C 96.022 176.342,96.829 176.882,97.244 177.014 C 97.659 177.146,98.109 177.696,98.245 178.236 C 98.380 178.776,98.846 179.467,99.279 179.770 C 100.183 180.403,100.777 182.564,100.790 185.267 C 100.807 188.575,100.358 188.400,108.835 188.400 L 116.385 188.400 116.641 187.378 C 117.113 185.500,116.601 179.685,115.896 178.906 C 115.539 178.512,115.022 177.292,114.747 176.195 C 114.471 175.098,113.740 173.651,113.123 172.981 C 112.505 172.310,112.000 171.636,112.000 171.481 C 112.000 171.028,108.933 168.000,108.474 168.000 C 108.243 168.000,107.687 167.484,107.238 166.853 C 106.657 166.038,105.952 165.631,104.805 165.447 C 103.916 165.305,102.846 164.846,102.427 164.427 C 101.220 163.220,91.794 162.265,85.000 162.660 M167.571 162.824 C 161.975 163.164,160.840 163.395,158.675 164.632 C 157.754 165.159,156.730 165.594,156.400 165.599 C 156.070 165.604,155.010 166.236,154.044 167.004 C 153.078 167.772,152.038 168.400,151.734 168.400 C 151.429 168.400,151.008 168.853,150.797 169.407 C 150.587 169.961,149.986 170.577,149.463 170.776 C 148.880 170.998,148.422 171.575,148.279 172.269 C 148.151 172.891,147.495 173.996,146.823 174.725 C 146.150 175.453,145.599 176.443,145.598 176.925 C 145.594 178.385,144.811 180.732,144.085 181.458 C 142.941 182.603,143.103 193.500,144.283 194.767 C 144.774 195.293,145.247 196.490,145.398 197.584 C 145.660 199.493,146.879 202.000,147.544 202.000 C 147.740 202.000,148.008 202.540,148.140 203.200 C 148.278 203.891,148.634 204.400,148.978 204.400 C 149.307 204.400,149.965 204.926,150.441 205.570 C 150.917 206.213,151.777 206.856,152.353 206.998 C 152.929 207.141,153.857 207.692,154.416 208.223 C 155.038 208.814,156.279 209.348,157.616 209.599 C 158.817 209.825,160.292 210.370,160.893 210.811 C 161.494 211.252,162.844 211.715,163.893 211.840 C 166.100 212.102,167.785 212.673,169.200 213.638 C 169.750 214.013,171.280 214.432,172.600 214.569 C 173.920 214.706,175.450 215.138,176.000 215.531 C 177.070 216.294,178.779 217.001,180.400 217.351 C 180.950 217.469,182.294 218.474,183.386 219.584 L 185.371 221.601 185.654 227.301 C 186.039 235.049,185.606 239.690,184.365 241.118 C 180.403 245.675,180.312 245.711,172.641 245.711 C 166.179 245.711,163.600 245.198,163.600 243.914 C 163.600 243.741,163.365 243.600,163.078 243.600 C 161.280 243.600,159.200 239.710,159.200 236.347 C 159.200 232.808,158.790 232.621,150.751 232.473 C 142.697 232.324,142.800 232.277,142.800 236.144 C 142.800 240.029,143.562 243.526,144.646 244.610 C 145.171 245.134,145.600 245.804,145.600 246.098 C 145.600 246.733,150.945 252.000,151.589 252.000 C 151.835 252.000,152.482 252.445,153.026 252.990 C 153.570 253.534,155.019 254.241,156.245 254.561 C 157.471 254.882,158.788 255.427,159.170 255.773 C 161.739 258.097,184.355 257.963,186.883 255.609 C 187.342 255.181,188.471 254.718,189.394 254.580 C 190.511 254.413,191.437 253.940,192.169 253.164 C 192.773 252.524,193.440 252.000,193.650 252.000 C 194.145 252.000,197.200 248.886,197.200 248.381 C 197.200 248.169,197.624 247.626,198.141 247.176 C 198.705 246.686,199.291 245.488,199.603 244.188 C 199.889 242.995,200.501 241.614,200.962 241.119 C 202.272 239.713,202.258 221.243,200.945 219.400 C 200.475 218.740,199.860 217.429,199.578 216.487 C 199.296 215.546,198.684 214.376,198.217 213.887 C 197.750 213.399,197.056 212.505,196.675 211.900 C 196.294 211.295,195.749 210.800,195.466 210.800 C 195.182 210.800,194.441 210.269,193.819 209.619 C 193.197 208.970,192.128 208.329,191.444 208.194 C 189.711 207.854,188.000 207.161,188.000 206.800 C 188.000 206.354,186.066 205.693,183.928 205.409 C 182.899 205.272,181.639 204.832,181.128 204.432 C 180.618 204.032,178.850 203.476,177.200 203.197 C 175.550 202.918,173.448 202.264,172.529 201.745 C 171.610 201.225,170.398 200.800,169.837 200.800 C 168.472 200.800,165.712 199.670,165.458 199.007 C 165.346 198.714,164.696 198.353,164.013 198.203 C 163.311 198.049,162.475 197.468,162.087 196.865 C 161.709 196.279,161.040 195.501,160.600 195.135 C 159.161 193.939,159.400 182.227,160.900 180.445 C 161.505 179.727,162.000 178.887,162.000 178.579 C 162.000 178.270,162.495 177.709,163.100 177.331 C 163.705 176.953,164.588 176.183,165.062 175.622 C 166.774 173.592,178.241 173.889,180.420 176.019 C 181.084 176.669,181.879 177.200,182.187 177.200 C 182.494 177.200,182.854 177.539,182.985 177.953 C 183.117 178.368,183.731 179.236,184.349 179.884 C 185.311 180.891,185.507 181.491,185.704 184.030 C 186.089 188.983,185.723 188.800,195.232 188.800 L 201.564 188.800 201.828 187.391 C 202.397 184.356,201.843 178.111,200.916 177.118 C 200.445 176.613,199.927 175.669,199.766 175.019 C 199.465 173.808,194.117 168.000,193.303 168.000 C 193.058 168.000,192.515 167.564,192.096 167.031 C 191.659 166.476,190.700 165.942,189.853 165.784 C 189.039 165.631,187.742 165.078,186.970 164.554 C 184.662 162.987,176.646 162.272,167.571 162.824 M223.486 163.447 C 223.079 163.854,223.680 166.127,224.483 167.221 C 224.981 167.898,225.315 169.245,225.476 171.221 C 225.648 173.347,226.029 174.787,226.803 176.252 C 227.592 177.744,227.965 179.183,228.170 181.530 C 228.358 183.691,228.690 185.062,229.173 185.679 C 229.950 186.670,230.800 190.038,230.800 192.123 C 230.800 192.829,231.226 194.215,231.747 195.203 C 232.290 196.234,232.900 198.432,233.177 200.357 C 233.477 202.437,233.960 204.119,234.447 204.778 C 234.986 205.507,235.309 206.778,235.473 208.821 C 235.640 210.886,236.047 212.475,236.801 214.000 C 237.492 215.400,237.988 217.218,238.164 219.000 C 238.326 220.635,238.843 222.632,239.407 223.800 C 239.942 224.908,240.535 227.138,240.737 228.800 C 240.940 230.462,241.462 232.424,241.908 233.200 C 242.352 233.970,242.929 236.124,243.192 237.987 C 243.476 240.002,243.975 241.803,244.424 242.434 C 244.907 243.113,245.318 244.713,245.564 246.877 C 245.824 249.165,246.280 250.885,246.974 252.190 C 247.538 253.251,248.000 254.528,248.000 255.027 C 248.000 257.204,247.991 257.201,254.943 257.187 C 261.328 257.175,262.800 256.897,262.800 255.705 C 262.800 255.481,263.061 255.081,263.380 254.816 C 263.700 254.551,264.064 253.494,264.191 252.467 C 264.613 249.039,265.284 246.264,266.043 244.807 C 266.457 244.014,266.909 242.202,267.048 240.782 C 267.187 239.362,267.695 237.390,268.177 236.400 C 268.659 235.410,269.284 233.026,269.568 231.102 C 269.898 228.858,270.364 227.245,270.868 226.604 C 271.398 225.931,271.760 224.595,271.982 222.503 C 272.299 219.497,272.596 218.506,273.811 216.400 C 274.129 215.850,274.391 214.824,274.394 214.120 C 274.403 212.214,275.207 208.815,276.027 207.213 C 276.425 206.436,276.926 204.503,277.140 202.917 C 277.355 201.331,277.887 199.351,278.323 198.517 C 278.760 197.683,279.319 195.570,279.565 193.821 C 279.812 192.073,280.382 190.019,280.832 189.256 C 281.313 188.440,281.793 186.621,281.997 184.835 C 282.384 181.463,282.651 180.515,283.496 179.530 C 283.812 179.161,284.244 177.451,284.456 175.730 C 284.673 173.977,285.274 171.684,285.824 170.518 C 286.479 169.131,286.838 167.597,286.903 165.918 L 287.000 163.400 279.000 163.400 L 271.000 163.400 270.376 166.600 C 270.033 168.360,269.465 170.250,269.114 170.800 C 268.724 171.411,268.317 173.481,268.068 176.120 C 267.786 179.103,267.399 180.940,266.817 182.057 C 266.250 183.146,265.848 184.992,265.590 187.705 C 265.355 190.175,264.903 192.367,264.423 193.367 C 263.987 194.277,263.382 196.999,263.057 199.514 C 262.717 202.145,262.197 204.450,261.810 205.042 C 261.434 205.615,260.997 207.488,260.805 209.351 C 260.327 213.989,259.987 215.575,259.170 216.977 C 258.727 217.739,258.359 219.482,258.196 221.600 C 257.651 228.694,256.662 229.696,254.029 225.823 C 252.619 223.748,252.435 223.052,252.009 218.171 C 251.766 215.383,251.412 213.721,250.862 212.771 C 250.369 211.922,249.837 209.724,249.465 207.000 C 249.134 204.580,248.495 201.610,248.045 200.400 C 247.595 199.190,247.220 197.468,247.213 196.573 C 247.196 194.464,246.432 190.329,245.952 189.745 C 245.385 189.057,244.415 184.063,244.407 181.794 C 244.403 180.622,244.092 179.209,243.659 178.394 C 242.721 176.631,242.117 173.854,241.808 169.894 C 241.578 166.944,240.603 164.340,239.418 163.506 C 238.913 163.151,223.838 163.096,223.486 163.447 M267.833 280.300 C 267.668 280.465,215.393 280.690,151.667 280.800 L 35.800 281.000 35.800 327.600 L 35.800 374.200 157.839 374.400 C 260.472 374.568,279.982 374.687,280.539 375.149 C 281.036 375.562,281.200 376.378,281.200 378.449 L 281.200 381.200 284.940 381.200 L 288.679 381.200 288.938 377.300 C 289.080 375.155,289.197 361.570,289.198 347.112 L 289.200 320.824 264.700 320.628 C 227.079 320.328,230.000 320.795,230.000 315.091 C 230.000 309.794,229.639 310.000,238.924 310.000 L 246.386 310.000 248.250 308.100 C 250.903 305.396,251.773 304.348,252.372 303.134 C 252.662 302.547,253.237 301.979,253.650 301.871 C 254.717 301.592,254.578 300.848,253.374 300.390 C 252.801 300.172,247.666 300.000,241.745 300.000 C 229.116 300.000,230.000 300.370,230.000 295.091 C 230.000 289.557,228.578 290.000,246.338 290.000 C 261.416 290.000,264.400 289.750,264.400 288.484 C 264.400 288.198,264.805 287.556,265.300 287.057 C 265.795 286.559,266.719 285.397,267.354 284.476 C 267.989 283.554,268.621 282.800,268.758 282.800 C 268.895 282.800,269.241 282.426,269.527 281.969 C 270.302 280.727,268.844 279.289,267.833 280.300 M109.429 290.571 C 110.169 291.312,110.245 298.795,109.520 299.520 C 108.750 300.290,71.345 300.203,70.571 299.429 C 69.700 298.557,69.771 291.716,70.662 290.731 C 71.564 289.735,108.440 289.582,109.429 290.571 M199.429 290.571 C 200.169 291.312,200.245 298.795,199.520 299.520 C 198.745 300.295,141.348 300.205,140.571 299.429 C 139.700 298.557,139.771 291.716,140.662 290.731 C 141.567 289.732,198.434 289.577,199.429 290.571 M109.429 310.571 C 110.169 311.312,110.245 318.795,109.520 319.520 C 108.750 320.290,71.345 320.203,70.571 319.429 C 69.700 318.557,69.771 311.716,70.662 310.731 C 71.564 309.735,108.440 309.582,109.429 310.571 M199.429 310.571 C 200.169 311.312,200.245 318.795,199.520 319.520 C 198.745 320.295,141.348 320.205,140.571 319.429 C 139.700 318.557,139.771 311.716,140.662 310.731 C 141.567 309.732,198.434 309.577,199.429 310.571 M109.429 330.571 C 110.169 331.312,110.245 338.795,109.520 339.520 C 108.750 340.290,71.345 340.203,70.571 339.429 C 69.700 338.557,69.771 331.716,70.662 330.731 C 71.564 329.735,108.440 329.582,109.429 330.571 M199.429 330.571 C 200.169 331.312,200.245 338.795,199.520 339.520 C 198.745 340.295,141.348 340.205,140.571 339.429 C 139.700 338.557,139.771 331.716,140.662 330.731 C 141.567 329.732,198.434 329.577,199.429 330.571 M269.429 330.571 C 270.169 331.312,270.245 338.795,269.520 339.520 C 268.750 340.290,231.345 340.203,230.571 339.429 C 229.700 338.557,229.771 331.716,230.662 330.731 C 231.564 329.735,268.440 329.582,269.429 330.571 " stroke="none" fill="#fbfbfb" fill-rule="evenodd"></path><path id="path4" d="M35.956 24.665 C 34.401 25.080,34.400 25.134,34.400 82.730 C 34.400 132.669,34.466 138.717,35.023 139.511 L 35.645 140.400 169.961 140.400 C 299.575 140.400,304.299 140.374,304.938 139.669 C 306.128 138.354,305.921 115.870,304.711 115.023 C 303.919 114.468,298.988 114.400,259.711 114.400 L 215.600 114.400 215.600 70.023 L 215.600 25.645 214.711 25.023 C 213.868 24.432,38.143 24.080,35.956 24.665 M214.302 69.970 C 214.395 110.332,214.460 114.204,215.062 114.869 C 215.690 115.563,217.764 115.601,259.960 115.698 L 304.200 115.800 304.306 127.500 L 304.412 139.200 170.006 139.200 L 35.600 139.200 35.600 82.667 C 35.600 51.573,35.720 26.013,35.868 25.866 C 36.015 25.719,76.200 25.644,125.168 25.699 L 214.200 25.800 214.302 69.970 M220.349 28.261 C 219.306 29.519,219.350 108.950,220.394 109.994 C 221.274 110.874,296.468 111.275,300.156 110.420 C 303.838 109.566,306.472 112.495,262.228 68.248 C 239.872 45.892,221.427 27.600,221.239 27.600 C 221.052 27.600,220.651 27.898,220.349 28.261 M226.399 34.600 C 228.856 37.020,231.077 39.212,231.333 39.471 C 231.590 39.730,233.656 41.822,235.924 44.120 C 238.193 46.418,240.443 48.662,240.924 49.108 C 241.406 49.553,243.656 51.803,245.924 54.108 C 248.193 56.412,250.443 58.662,250.924 59.108 C 251.406 59.553,253.656 61.803,255.924 64.108 C 258.193 66.412,260.443 68.662,260.924 69.108 C 261.406 69.553,263.656 71.803,265.924 74.108 C 268.193 76.412,270.443 78.662,270.924 79.108 C 271.406 79.553,273.656 81.803,275.924 84.108 C 278.193 86.412,280.443 88.662,280.924 89.108 C 281.406 89.553,283.656 91.803,285.924 94.108 C 288.193 96.412,290.443 98.663,290.924 99.108 C 294.456 102.376,300.489 108.844,300.239 109.094 C 300.071 109.262,282.173 109.400,260.467 109.400 L 221.000 109.400 220.890 70.200 C 220.784 32.352,220.855 28.287,221.597 29.606 C 221.781 29.933,223.942 32.180,226.399 34.600 M70.662 80.731 C 69.771 81.716,69.700 88.557,70.571 89.429 C 71.345 90.203,108.750 90.290,109.520 89.520 C 110.245 88.795,110.169 81.312,109.429 80.571 C 108.440 79.582,71.564 79.735,70.662 80.731 M140.662 80.731 C 139.771 81.716,139.700 88.557,140.571 89.429 C 141.348 90.205,198.745 90.295,199.520 89.520 C 200.245 88.795,200.169 81.312,199.429 80.571 C 198.434 79.577,141.567 79.732,140.662 80.731 M70.662 100.731 C 69.771 101.716,69.700 108.557,70.571 109.429 C 71.345 110.203,108.750 110.290,109.520 109.520 C 110.245 108.795,110.169 101.312,109.429 100.571 C 108.440 99.582,71.564 99.735,70.662 100.731 M140.662 100.731 C 139.771 101.716,139.700 108.557,140.571 109.429 C 141.348 110.205,198.745 110.295,199.520 109.520 C 200.245 108.795,200.169 101.312,199.429 100.571 C 198.434 99.577,141.567 99.732,140.662 100.731 M70.662 120.731 C 69.771 121.716,69.700 128.557,70.571 129.429 C 71.345 130.203,108.750 130.290,109.520 129.520 C 110.245 128.795,110.169 121.312,109.429 120.571 C 108.440 119.582,71.564 119.735,70.662 120.731 M140.662 120.731 C 139.771 121.716,139.700 128.557,140.571 129.429 C 141.348 130.205,198.745 130.295,199.520 129.520 C 200.245 128.795,200.169 121.312,199.429 120.571 C 198.434 119.577,141.567 119.732,140.662 120.731 M230.662 120.731 C 229.771 121.716,229.700 128.557,230.571 129.429 C 231.345 130.203,268.750 130.290,269.520 129.520 C 270.245 128.795,270.169 121.312,269.429 120.571 C 268.440 119.582,231.564 119.735,230.662 120.731 M84.600 160.650 C 82.900 160.985,77.717 162.068,76.042 162.439 C 75.075 162.653,73.815 163.154,73.242 163.553 C 72.669 163.951,71.613 164.476,70.896 164.719 C 68.467 165.542,63.362 170.255,62.142 172.800 C 61.773 173.570,61.153 174.650,60.763 175.200 C 59.380 177.153,59.200 181.206,59.200 210.400 C 59.200 240.753,59.343 243.536,61.033 246.022 C 61.565 246.803,62.000 247.626,62.000 247.849 C 62.000 249.153,68.203 254.484,70.779 255.392 C 71.654 255.701,72.872 256.321,73.485 256.770 C 74.165 257.268,75.759 257.748,77.573 258.002 C 79.208 258.231,81.368 258.702,82.373 259.049 C 85.143 260.007,91.404 259.917,95.655 258.860 C 97.555 258.387,99.484 258.000,99.942 258.000 C 100.911 258.000,107.025 254.986,108.200 253.929 C 109.084 253.133,112.671 249.565,114.159 248.000 C 114.682 247.450,115.244 246.550,115.408 246.000 C 115.571 245.450,116.014 244.550,116.391 244.000 C 117.637 242.185,118.000 240.334,118.000 235.802 C 118.000 229.660,118.547 230.000,108.678 230.000 C 99.531 230.000,99.811 229.867,99.334 234.427 C 98.970 237.906,97.162 241.753,95.581 242.408 C 94.932 242.677,94.400 243.040,94.400 243.215 C 94.400 244.129,90.716 244.908,87.379 244.699 C 83.653 244.467,82.364 243.852,79.578 240.978 L 78.200 239.555 78.200 210.678 L 78.200 181.800 79.491 179.941 C 82.662 175.376,89.179 173.910,93.664 176.755 C 94.666 177.390,95.871 178.032,96.343 178.182 C 96.814 178.331,97.200 178.689,97.200 178.977 C 97.200 179.264,97.630 180.287,98.155 181.250 C 98.781 182.396,99.177 183.907,99.303 185.630 C 99.643 190.246,99.110 190.000,108.746 190.000 L 117.065 190.000 117.576 189.045 C 118.584 187.162,117.999 178.939,116.700 176.729 C 116.095 175.700,115.600 174.613,115.600 174.315 C 115.600 173.458,111.719 168.529,110.083 167.308 C 109.267 166.699,108.365 165.885,108.077 165.500 C 107.790 165.115,107.230 164.800,106.833 164.800 C 106.436 164.800,105.442 164.345,104.623 163.790 C 103.804 163.234,102.384 162.612,101.467 162.407 C 100.550 162.203,98.900 161.840,97.800 161.602 C 96.700 161.363,95.170 160.999,94.400 160.793 C 93.044 160.431,86.222 160.331,84.600 160.650 M167.200 160.846 C 166.430 161.075,164.450 161.520,162.800 161.836 C 158.982 162.566,158.349 162.764,157.532 163.480 C 157.165 163.802,156.137 164.280,155.247 164.543 C 153.595 165.031,147.200 170.404,147.200 171.305 C 147.200 171.553,146.768 172.216,146.239 172.778 C 145.711 173.340,144.991 174.661,144.639 175.714 C 144.288 176.767,143.744 178.027,143.431 178.514 C 141.490 181.534,141.558 193.621,143.539 197.765 C 143.969 198.664,144.600 200.063,144.941 200.873 C 145.807 202.929,150.249 208.000,151.185 208.000 C 151.380 208.000,152.050 208.430,152.676 208.957 C 153.301 209.483,154.710 210.188,155.806 210.524 C 156.903 210.860,158.520 211.484,159.400 211.912 C 160.280 212.340,161.652 212.789,162.448 212.911 C 163.245 213.033,164.751 213.522,165.795 213.998 C 166.839 214.473,168.976 215.130,170.543 215.457 C 172.111 215.784,173.673 216.304,174.014 216.613 C 174.355 216.921,175.774 217.466,177.167 217.823 C 179.889 218.520,181.569 219.758,183.419 222.428 C 185.108 224.864,185.294 238.112,183.655 239.177 C 183.466 239.300,183.015 239.980,182.652 240.688 C 182.289 241.397,181.589 242.184,181.096 242.438 C 180.603 242.692,179.781 243.282,179.268 243.750 C 178.413 244.530,177.884 244.600,172.863 244.600 L 167.389 244.600 165.426 243.300 C 164.346 242.585,163.359 242.000,163.231 242.000 C 162.070 242.000,160.725 238.942,160.368 235.494 C 159.810 230.105,160.044 230.244,151.246 230.061 C 143.200 229.894,142.475 230.089,141.381 232.707 C 140.418 235.012,141.618 243.169,143.219 245.200 C 143.652 245.750,144.166 246.564,144.359 247.010 C 144.912 248.279,148.910 252.230,150.428 253.007 C 151.183 253.393,151.936 253.940,152.103 254.224 C 152.270 254.508,153.080 254.953,153.903 255.214 C 154.726 255.475,156.139 256.111,157.042 256.627 C 157.945 257.144,160.195 257.835,162.042 258.163 C 163.889 258.492,166.570 259.045,168.000 259.392 C 171.104 260.145,175.637 259.916,180.311 258.768 C 182.010 258.351,183.977 258.007,184.681 258.005 C 186.111 257.999,187.721 257.392,189.154 256.316 C 189.679 255.922,190.399 255.598,190.754 255.596 C 191.897 255.589,197.855 250.688,198.254 249.427 C 198.397 248.972,198.835 248.374,199.227 248.099 C 199.618 247.823,200.157 246.938,200.423 246.131 C 200.689 245.325,201.273 244.044,201.721 243.285 C 204.032 239.367,204.056 220.730,201.754 217.301 C 201.348 216.695,200.817 215.640,200.574 214.955 C 200.154 213.773,197.284 210.000,196.804 210.000 C 196.680 210.000,196.005 209.476,195.304 208.836 C 194.603 208.196,193.368 207.453,192.560 207.187 C 191.752 206.920,190.461 206.274,189.690 205.751 C 188.919 205.228,187.804 204.800,187.212 204.800 C 186.620 204.800,185.253 204.353,184.175 203.807 C 183.097 203.261,180.801 202.527,179.074 202.174 C 177.347 201.822,175.363 201.210,174.667 200.813 C 173.970 200.417,172.620 199.978,171.667 199.836 C 166.988 199.144,162.494 195.940,161.268 192.422 C 159.888 188.464,161.833 179.634,164.439 178.025 C 164.996 177.681,166.070 176.996,166.826 176.501 C 169.151 174.981,176.475 175.159,178.629 176.789 C 179.493 177.443,180.519 177.983,180.910 177.989 C 181.300 177.995,181.780 178.405,181.975 178.900 C 182.171 179.395,182.786 180.406,183.343 181.147 C 184.024 182.054,184.431 183.229,184.591 184.747 C 185.201 190.535,184.942 190.400,195.402 190.400 C 204.089 190.400,204.930 189.181,203.050 179.319 C 202.287 175.318,196.710 167.200,194.725 167.200 C 194.573 167.200,193.885 166.685,193.195 166.054 C 192.505 165.424,191.256 164.704,190.418 164.453 C 189.580 164.202,188.680 163.737,188.417 163.420 C 188.153 163.103,186.917 162.642,185.669 162.395 C 184.421 162.148,182.230 161.671,180.800 161.335 C 177.610 160.586,169.108 160.280,167.200 160.846 M222.822 162.378 C 221.685 163.515,222.037 167.080,223.569 169.941 C 223.835 170.439,224.391 172.590,224.805 174.723 C 225.220 176.855,225.852 179.186,226.210 179.903 C 226.568 180.620,227.014 182.286,227.201 183.606 C 227.553 186.098,228.279 188.708,228.813 189.400 C 228.982 189.620,229.350 191.240,229.630 193.000 C 229.910 194.760,230.463 196.899,230.859 197.754 C 231.256 198.609,231.875 200.949,232.237 202.954 C 232.598 204.959,233.209 207.140,233.594 207.800 C 233.979 208.460,234.516 210.440,234.788 212.200 C 235.059 213.960,235.615 216.138,236.024 217.040 C 236.432 217.942,236.951 219.832,237.178 221.240 C 237.668 224.278,238.224 226.304,238.744 226.939 C 238.951 227.192,239.350 228.840,239.630 230.600 C 239.910 232.360,240.462 234.497,240.856 235.348 C 241.251 236.200,241.857 238.538,242.203 240.544 C 242.550 242.549,243.106 244.607,243.439 245.116 C 243.773 245.625,244.379 247.787,244.787 249.921 C 245.209 252.128,246.018 254.748,246.664 256.000 L 247.800 258.200 254.400 258.318 C 264.251 258.494,264.837 258.213,265.400 253.049 C 265.547 251.702,265.991 249.880,266.385 249.000 C 267.447 246.635,267.582 246.146,268.011 243.124 C 268.226 241.606,268.740 239.697,269.153 238.882 C 269.565 238.067,270.116 236.050,270.377 234.400 C 270.638 232.750,271.217 230.515,271.665 229.434 C 272.113 228.353,272.646 226.288,272.850 224.846 C 273.054 223.405,273.646 221.297,274.166 220.163 C 274.685 219.028,275.242 216.953,275.403 215.550 C 275.564 214.148,276.024 212.280,276.424 211.400 C 277.258 209.568,277.807 207.468,278.202 204.605 C 278.354 203.508,278.763 202.068,279.111 201.405 C 279.459 200.742,280.058 198.670,280.442 196.800 C 280.825 194.930,281.503 192.320,281.949 191.000 C 282.394 189.680,282.946 187.516,283.176 186.190 C 283.406 184.865,283.934 183.114,284.349 182.299 C 284.765 181.484,285.232 179.631,285.387 178.181 C 285.543 176.731,286.101 174.603,286.628 173.452 C 287.155 172.301,287.785 169.928,288.028 168.179 C 288.271 166.431,288.646 164.787,288.863 164.526 C 289.355 163.931,288.687 162.582,287.617 162.009 C 287.169 161.769,283.541 161.600,278.855 161.600 L 270.858 161.600 270.029 162.654 C 269.573 163.234,269.200 164.016,269.200 164.392 C 269.200 164.769,268.948 165.600,268.639 166.239 C 268.330 166.877,267.871 168.750,267.618 170.400 C 266.893 175.133,266.339 177.765,265.973 178.220 C 265.787 178.451,265.291 180.888,264.871 183.636 C 264.451 186.384,263.833 189.165,263.498 189.816 C 263.163 190.467,262.673 192.710,262.408 194.800 C 262.144 196.890,261.567 199.680,261.127 201.000 C 260.687 202.320,260.069 205.264,259.755 207.542 C 259.440 209.821,258.975 212.071,258.722 212.542 C 258.112 213.678,257.239 217.795,257.184 219.800 C 257.159 220.680,256.921 222.003,256.654 222.740 L 256.169 224.080 254.958 222.132 C 253.745 220.181,252.800 216.663,252.800 214.100 C 252.800 213.349,252.364 211.444,251.831 209.867 C 251.297 208.290,250.645 205.290,250.381 203.200 C 250.117 201.110,249.558 198.601,249.139 197.625 C 248.721 196.648,248.205 194.174,247.992 192.126 C 247.780 190.078,247.180 187.182,246.658 185.690 C 246.137 184.198,245.579 181.570,245.418 179.850 C 245.256 178.131,244.690 175.480,244.159 173.959 C 243.628 172.439,243.022 169.543,242.813 167.523 C 242.490 164.399,242.280 163.698,241.408 162.826 L 240.384 161.800 232.014 161.678 C 224.016 161.561,223.608 161.592,222.822 162.378 M98.732 163.254 C 100.661 163.524,101.925 163.925,102.427 164.427 C 102.846 164.846,103.916 165.305,104.805 165.447 C 105.952 165.631,106.657 166.038,107.238 166.853 C 107.687 167.484,108.243 168.000,108.474 168.000 C 108.933 168.000,112.000 171.028,112.000 171.481 C 112.000 171.636,112.505 172.310,113.123 172.981 C 113.740 173.651,114.471 175.098,114.747 176.195 C 115.022 177.292,115.539 178.512,115.896 178.906 C 116.601 179.685,117.113 185.500,116.641 187.378 L 116.385 188.400 108.835 188.400 C 100.358 188.400,100.807 188.575,100.790 185.267 C 100.777 182.564,100.183 180.403,99.279 179.770 C 98.846 179.467,98.380 178.776,98.245 178.236 C 98.109 177.696,97.659 177.146,97.244 177.014 C 96.829 176.882,96.022 176.342,95.452 175.813 C 93.266 173.787,83.551 173.784,81.124 175.807 C 76.625 179.559,76.851 177.721,76.833 210.800 C 76.817 242.930,76.743 242.434,81.913 245.161 C 84.078 246.302,95.600 245.617,95.600 244.346 C 95.600 244.167,96.127 243.748,96.772 243.415 C 97.416 243.081,98.069 242.412,98.223 241.927 C 98.377 241.442,98.849 240.765,99.271 240.422 C 100.127 239.729,100.773 237.431,100.796 235.000 C 100.830 231.382,100.315 231.600,108.829 231.600 L 116.364 231.600 116.632 233.032 C 117.097 235.507,116.595 240.064,115.690 241.600 C 115.236 242.370,114.668 243.745,114.429 244.656 C 114.166 245.655,113.597 246.572,112.996 246.966 C 112.448 247.325,112.000 247.809,112.000 248.041 C 112.000 248.557,108.607 252.000,108.098 252.000 C 107.897 252.000,107.272 252.516,106.710 253.147 C 106.084 253.850,105.090 254.405,104.144 254.580 C 103.295 254.736,102.240 255.194,101.800 255.597 C 99.026 258.134,77.794 258.103,75.061 255.557 C 74.633 255.158,73.516 254.716,72.579 254.576 C 71.533 254.419,70.566 253.965,70.074 253.399 C 69.634 252.893,68.628 252.245,67.838 251.959 C 67.049 251.674,66.303 251.124,66.180 250.738 C 66.058 250.351,65.463 249.620,64.860 249.112 C 64.256 248.604,63.441 247.381,63.048 246.394 C 62.654 245.407,62.033 244.266,61.666 243.858 C 61.058 243.181,60.991 240.296,60.893 210.717 L 60.786 178.317 61.693 176.860 C 62.192 176.059,62.893 174.773,63.251 174.002 C 64.558 171.187,70.566 165.865,72.922 165.434 C 73.760 165.281,74.787 164.813,75.205 164.395 C 76.912 162.688,90.119 162.047,98.732 163.254 M182.884 163.227 C 184.552 163.460,186.098 163.962,186.970 164.554 C 187.742 165.078,189.039 165.631,189.853 165.784 C 190.700 165.942,191.659 166.476,192.096 167.031 C 192.515 167.564,193.058 168.000,193.303 168.000 C 194.117 168.000,199.465 173.808,199.766 175.019 C 199.927 175.669,200.445 176.613,200.916 177.118 C 201.843 178.111,202.397 184.356,201.828 187.391 L 201.564 188.800 195.232 188.800 C 185.723 188.800,186.089 188.983,185.704 184.030 C 185.507 181.491,185.311 180.891,184.349 179.884 C 183.731 179.236,183.117 178.368,182.985 177.953 C 182.854 177.539,182.494 177.200,182.187 177.200 C 181.879 177.200,181.084 176.669,180.420 176.019 C 178.241 173.889,166.774 173.592,165.062 175.622 C 164.588 176.183,163.705 176.953,163.100 177.331 C 162.495 177.709,162.000 178.270,162.000 178.579 C 162.000 178.887,161.505 179.727,160.900 180.445 C 159.400 182.227,159.161 193.939,160.600 195.135 C 161.040 195.501,161.709 196.279,162.087 196.865 C 162.475 197.468,163.311 198.049,164.013 198.203 C 164.696 198.353,165.346 198.714,165.458 199.007 C 165.712 199.670,168.472 200.800,169.837 200.800 C 170.398 200.800,171.610 201.225,172.529 201.745 C 173.448 202.264,175.550 202.918,177.200 203.197 C 178.850 203.476,180.618 204.032,181.128 204.432 C 181.639 204.832,182.899 205.272,183.928 205.409 C 186.066 205.693,188.000 206.354,188.000 206.800 C 188.000 207.161,189.711 207.854,191.444 208.194 C 192.128 208.329,193.197 208.970,193.819 209.619 C 194.441 210.269,195.182 210.800,195.466 210.800 C 195.749 210.800,196.294 211.295,196.675 211.900 C 197.056 212.505,197.750 213.399,198.217 213.887 C 198.684 214.376,199.296 215.546,199.578 216.487 C 199.860 217.429,200.475 218.740,200.945 219.400 C 202.258 221.243,202.272 239.713,200.962 241.119 C 200.501 241.614,199.889 242.995,199.603 244.188 C 199.291 245.488,198.705 246.686,198.141 247.176 C 197.624 247.626,197.200 248.169,197.200 248.381 C 197.200 248.886,194.145 252.000,193.650 252.000 C 193.440 252.000,192.773 252.524,192.169 253.164 C 191.437 253.940,190.511 254.413,189.394 254.580 C 188.471 254.718,187.342 255.181,186.883 255.609 C 184.355 257.963,161.739 258.097,159.170 255.773 C 158.788 255.427,157.471 254.882,156.245 254.561 C 155.019 254.241,153.570 253.534,153.026 252.990 C 152.482 252.445,151.835 252.000,151.589 252.000 C 150.945 252.000,145.600 246.733,145.600 246.098 C 145.600 245.804,145.171 245.134,144.646 244.610 C 143.562 243.526,142.800 240.029,142.800 236.144 C 142.800 232.277,142.697 232.324,150.751 232.473 C 158.790 232.621,159.200 232.808,159.200 236.347 C 159.200 239.710,161.280 243.600,163.078 243.600 C 163.365 243.600,163.600 243.741,163.600 243.914 C 163.600 245.198,166.179 245.711,172.641 245.711 C 180.312 245.711,180.403 245.675,184.365 241.118 C 185.606 239.690,186.039 235.049,185.654 227.301 L 185.371 221.601 183.386 219.584 C 182.294 218.474,180.950 217.469,180.400 217.351 C 178.779 217.001,177.070 216.294,176.000 215.531 C 175.450 215.138,173.920 214.706,172.600 214.569 C 171.280 214.432,169.750 214.013,169.200 213.638 C 167.785 212.673,166.100 212.102,163.893 211.840 C 162.844 211.715,161.494 211.252,160.893 210.811 C 160.292 210.370,158.817 209.825,157.616 209.599 C 156.279 209.348,155.038 208.814,154.416 208.223 C 153.857 207.692,152.929 207.141,152.353 206.998 C 151.777 206.856,150.917 206.213,150.441 205.570 C 149.965 204.926,149.307 204.400,148.978 204.400 C 148.634 204.400,148.278 203.891,148.140 203.200 C 148.008 202.540,147.740 202.000,147.544 202.000 C 146.879 202.000,145.660 199.493,145.398 197.584 C 145.247 196.490,144.774 195.293,144.283 194.767 C 143.103 193.500,142.941 182.603,144.085 181.458 C 144.811 180.732,145.594 178.385,145.598 176.925 C 145.599 176.443,146.150 175.453,146.823 174.725 C 147.495 173.996,148.151 172.891,148.279 172.269 C 148.422 171.575,148.880 170.998,149.463 170.776 C 149.986 170.577,150.587 169.961,150.797 169.407 C 151.008 168.853,151.429 168.400,151.734 168.400 C 152.038 168.400,153.078 167.772,154.044 167.004 C 155.010 166.236,156.070 165.604,156.400 165.599 C 156.730 165.594,157.754 165.159,158.675 164.632 C 162.137 162.653,173.892 161.970,182.884 163.227 M239.418 163.506 C 240.603 164.340,241.578 166.944,241.808 169.894 C 242.117 173.854,242.721 176.631,243.659 178.394 C 244.092 179.209,244.403 180.622,244.407 181.794 C 244.415 184.063,245.385 189.057,245.952 189.745 C 246.432 190.329,247.196 194.464,247.213 196.573 C 247.220 197.468,247.595 199.190,248.045 200.400 C 248.495 201.610,249.134 204.580,249.465 207.000 C 249.837 209.724,250.369 211.922,250.862 212.771 C 251.412 213.721,251.766 215.383,252.009 218.171 C 252.435 223.052,252.619 223.748,254.029 225.823 C 256.662 229.696,257.651 228.694,258.196 221.600 C 258.359 219.482,258.727 217.739,259.170 216.977 C 259.987 215.575,260.327 213.989,260.805 209.351 C 260.997 207.488,261.434 205.615,261.810 205.042 C 262.197 204.450,262.717 202.145,263.057 199.514 C 263.382 196.999,263.987 194.277,264.423 193.367 C 264.903 192.367,265.355 190.175,265.590 187.705 C 265.848 184.992,266.250 183.146,266.817 182.057 C 267.399 180.940,267.786 179.103,268.068 176.120 C 268.317 173.481,268.724 171.411,269.114 170.800 C 269.465 170.250,270.033 168.360,270.376 166.600 L 271.000 163.400 279.000 163.400 L 287.000 163.400 286.903 165.918 C 286.838 167.597,286.479 169.131,285.824 170.518 C 285.274 171.684,284.673 173.977,284.456 175.730 C 284.244 177.451,283.812 179.161,283.496 179.530 C 282.651 180.515,282.384 181.463,281.997 184.835 C 281.793 186.621,281.313 188.440,280.832 189.256 C 280.382 190.019,279.812 192.073,279.565 193.821 C 279.319 195.570,278.760 197.683,278.323 198.517 C 277.887 199.351,277.355 201.331,277.140 202.917 C 276.926 204.503,276.425 206.436,276.027 207.213 C 275.207 208.815,274.403 212.214,274.394 214.120 C 274.391 214.824,274.129 215.850,273.811 216.400 C 272.596 218.506,272.299 219.497,271.982 222.503 C 271.760 224.595,271.398 225.931,270.868 226.604 C 270.364 227.245,269.898 228.858,269.568 231.102 C 269.284 233.026,268.659 235.410,268.177 236.400 C 267.695 237.390,267.187 239.362,267.048 240.782 C 266.909 242.202,266.457 244.014,266.043 244.807 C 265.284 246.264,264.613 249.039,264.191 252.467 C 264.064 253.494,263.700 254.551,263.380 254.816 C 263.061 255.081,262.800 255.481,262.800 255.705 C 262.800 256.897,261.328 257.175,254.943 257.187 C 247.991 257.201,248.000 257.204,248.000 255.027 C 248.000 254.528,247.538 253.251,246.974 252.190 C 246.280 250.885,245.824 249.165,245.564 246.877 C 245.318 244.713,244.907 243.113,244.424 242.434 C 243.975 241.803,243.476 240.002,243.192 237.987 C 242.929 236.124,242.352 233.970,241.908 233.200 C 241.462 232.424,240.940 230.462,240.737 228.800 C 240.535 227.138,239.942 224.908,239.407 223.800 C 238.843 222.632,238.326 220.635,238.164 219.000 C 237.988 217.218,237.492 215.400,236.801 214.000 C 236.047 212.475,235.640 210.886,235.473 208.821 C 235.309 206.778,234.986 205.507,234.447 204.778 C 233.960 204.119,233.477 202.437,233.177 200.357 C 232.900 198.432,232.290 196.234,231.747 195.203 C 231.226 194.215,230.800 192.829,230.800 192.123 C 230.800 190.038,229.950 186.670,229.173 185.679 C 228.690 185.062,228.358 183.691,228.170 181.530 C 227.965 179.183,227.592 177.744,226.803 176.252 C 226.029 174.787,225.648 173.347,225.476 171.221 C 225.315 169.245,224.981 167.898,224.483 167.221 C 223.680 166.127,223.079 163.854,223.486 163.447 C 223.838 163.096,238.913 163.151,239.418 163.506 M307.947 226.500 C 307.448 227.215,306.820 227.936,306.551 228.102 C 306.282 228.269,305.653 229.079,305.152 229.902 C 304.652 230.726,304.116 231.490,303.961 231.600 C 303.806 231.710,302.851 232.880,301.839 234.200 C 300.827 235.520,299.504 237.175,298.899 237.877 C 298.295 238.580,297.170 239.977,296.400 240.982 C 295.630 241.988,294.316 243.663,293.480 244.705 C 291.460 247.223,290.380 248.576,289.331 249.902 C 288.853 250.506,287.855 251.720,287.114 252.600 C 286.373 253.480,285.505 254.582,285.184 255.049 C 283.933 256.868,281.203 260.283,279.640 261.984 C 278.738 262.965,278.000 263.883,278.000 264.025 C 278.000 264.166,277.505 264.804,276.900 265.442 C 276.295 266.081,275.472 267.111,275.071 267.732 C 274.308 268.913,273.470 269.955,271.300 272.420 C 270.585 273.232,270.000 274.018,270.000 274.167 C 270.000 274.315,269.595 274.866,269.100 275.391 C 268.605 275.915,267.863 276.826,267.450 277.414 C 265.810 279.752,273.952 279.600,150.028 279.600 L 36.031 279.600 35.216 280.475 C 34.095 281.678,33.908 373.119,35.023 374.711 L 35.645 375.600 157.343 375.600 C 251.463 375.600,279.149 375.709,279.520 376.080 C 279.784 376.344,280.000 377.604,280.000 378.880 C 280.000 380.676,280.136 381.200,280.600 381.200 C 281.509 381.200,281.455 375.910,280.539 375.149 C 279.982 374.687,260.472 374.568,157.839 374.400 L 35.800 374.200 35.800 327.600 L 35.800 281.000 151.600 280.800 C 215.290 280.690,267.717 280.445,268.105 280.255 C 268.767 279.932,270.001 280.514,269.999 281.149 C 269.999 281.287,269.279 282.210,268.400 283.200 C 267.521 284.190,266.801 285.108,266.801 285.241 C 266.800 285.373,266.260 286.046,265.600 286.737 C 264.940 287.428,264.400 288.221,264.400 288.499 C 264.400 289.750,261.375 290.000,246.268 290.000 C 228.540 290.000,230.000 289.537,230.000 295.160 C 230.000 300.358,229.130 300.000,241.745 300.000 C 247.666 300.000,252.801 300.172,253.374 300.390 C 254.578 300.848,254.717 301.592,253.650 301.871 C 253.237 301.979,252.662 302.547,252.372 303.134 C 251.773 304.348,250.903 305.396,248.250 308.100 L 246.386 310.000 238.855 310.000 C 229.626 310.000,230.000 309.782,230.000 315.160 C 230.000 320.783,227.115 320.329,264.731 320.628 L 289.262 320.824 289.131 351.007 C 289.029 374.453,289.105 380.901,289.470 379.895 C 290.153 378.011,290.201 321.561,289.520 320.880 C 289.158 320.518,283.514 320.398,266.620 320.390 C 245.532 320.381,241.655 320.215,240.718 319.278 C 240.232 318.792,242.153 316.235,246.728 311.274 C 247.679 310.243,249.011 308.607,249.690 307.638 C 250.368 306.670,251.210 305.562,251.562 305.178 C 253.001 303.603,254.920 301.220,255.346 300.480 C 256.533 298.418,261.080 292.775,264.436 289.200 C 265.572 287.990,266.931 286.325,267.455 285.500 C 267.980 284.675,268.554 284.000,268.731 284.000 C 268.907 284.000,269.340 283.395,269.693 282.656 C 270.242 281.505,271.633 279.682,275.995 274.400 C 277.008 273.174,278.877 270.781,281.000 267.993 C 281.880 266.838,283.050 265.392,283.600 264.781 C 285.634 262.521,286.590 261.370,287.412 260.190 C 287.875 259.524,288.546 258.624,288.902 258.190 C 289.259 257.755,290.195 256.590,290.983 255.600 C 291.771 254.610,292.936 253.170,293.572 252.400 C 296.059 249.391,296.760 248.510,298.659 246.000 C 299.741 244.570,300.924 243.040,301.288 242.600 C 302.702 240.890,307.220 235.340,308.124 234.200 C 311.187 230.341,312.274 225.200,310.027 225.200 C 309.157 225.200,308.621 225.535,307.947 226.500 M70.662 290.731 C 69.771 291.716,69.700 298.557,70.571 299.429 C 71.345 300.203,108.750 300.290,109.520 299.520 C 110.245 298.795,110.169 291.312,109.429 290.571 C 108.440 289.582,71.564 289.735,70.662 290.731 M140.662 290.731 C 139.771 291.716,139.700 298.557,140.571 299.429 C 141.348 300.205,198.745 300.295,199.520 299.520 C 200.245 298.795,200.169 291.312,199.429 290.571 C 198.434 289.577,141.567 289.732,140.662 290.731 M70.662 310.731 C 69.771 311.716,69.700 318.557,70.571 319.429 C 71.345 320.203,108.750 320.290,109.520 319.520 C 110.245 318.795,110.169 311.312,109.429 310.571 C 108.440 309.582,71.564 309.735,70.662 310.731 M140.662 310.731 C 139.771 311.716,139.700 318.557,140.571 319.429 C 141.348 320.205,198.745 320.295,199.520 319.520 C 200.245 318.795,200.169 311.312,199.429 310.571 C 198.434 309.577,141.567 309.732,140.662 310.731 M70.662 330.731 C 69.771 331.716,69.700 338.557,70.571 339.429 C 71.345 340.203,108.750 340.290,109.520 339.520 C 110.245 338.795,110.169 331.312,109.429 330.571 C 108.440 329.582,71.564 329.735,70.662 330.731 M140.662 330.731 C 139.771 331.716,139.700 338.557,140.571 339.429 C 141.348 340.205,198.745 340.295,199.520 339.520 C 200.245 338.795,200.169 331.312,199.429 330.571 C 198.434 329.577,141.567 329.732,140.662 330.731 M230.662 330.731 C 229.771 331.716,229.700 338.557,230.571 339.429 C 231.345 340.203,268.750 340.290,269.520 339.520 C 270.245 338.795,270.169 331.312,269.429 330.571 C 268.440 329.582,231.564 329.735,230.662 330.731 " stroke="none" fill="#bbdbbc" fill-rule="evenodd"></path></g></svg>